<svg width="520" height="151" viewBox="0 0 520 151" fill="none" xmlns="http://www.w3.org/2000/svg">
<path d="M87.7186 139.306C88.4536 139.306 89.0494 138.74 89.0494 138.043C89.0494 137.345 88.4536 136.779 87.7186 136.779C86.9835 136.779 86.3877 137.345 86.3877 138.043C86.3877 138.74 86.9835 139.306 87.7186 139.306Z" stroke="url(#paint0_linear_0_191)" stroke-miterlimit="10"/>
<path d="M87.7186 149.999C88.4536 149.999 89.0494 149.434 89.0494 148.736C89.0494 148.038 88.4536 147.473 87.7186 147.473C86.9835 147.473 86.3877 148.038 86.3877 148.736C86.3877 149.434 86.9835 149.999 87.7186 149.999Z" stroke="url(#paint1_linear_0_191)" stroke-miterlimit="10"/>
<path d="M176.104 44.1612C174.859 45.2969 173.573 46.4001 172.369 47.5659C168.852 50.9756 164.582 53.1445 159.336 53.925C148.654 55.5236 137.734 56.5292 128.646 62.8333C128.661 62.2955 128.604 62.0428 128.686 61.8252C132.601 51.4759 132.921 40.8265 131.028 29.9119C130.92 29.284 130.968 28.6461 131.593 27.6305C132.429 26.2796 133.699 24.9937 134.447 24.4484C139.736 20.5959 141.409 20.1081 145.772 18.7372C146.077 18.6421 146.385 18.512 146.71 18.3995C138.095 20.2281 131.183 25.0263 125.039 30.5974C118.865 36.186 113.239 42.2349 107.407 48.0512C102.917 43.1055 98.3489 38.1148 93.8335 33.0915C87.1166 25.6141 83.6218 17.0686 82.8263 7.65998C82.6087 5.11833 82.411 2.57168 82.2034 0.0300259C81.8932 0.022521 81.5805 0.00750488 81.2703 0C81.2603 0.110072 81.2528 0.217643 81.2428 0.330216C80.6374 7.6975 81.0026 15.2099 77.9957 22.2319C77.8155 22.6497 77.6254 23.07 77.4178 23.4878C73.8179 30.785 70.2681 38.0973 66.6958 45.4045C60.114 41.0392 54.2102 36.869 48.0037 33.0765C41.8472 29.319 35.3905 25.9444 29.0689 22.3996C28.8938 22.6372 28.7212 22.8699 28.546 23.1075C28.5686 23.1225 28.5961 23.1375 28.6161 23.1525C32.0208 25.339 35.4555 27.4729 38.7877 29.7343C39.5507 30.2497 40.3587 31.1527 40.4238 31.9207C40.9016 37.3117 41.0842 42.7228 41.5745 48.1113C41.9898 52.6667 42.6927 57.2022 43.2181 61.3824C43.158 61.3624 43.0905 61.3398 43.0305 61.3148C39.4531 60.064 35.7682 58.453 31.8757 57.5324C25.7167 56.0764 19.4326 54.9907 13.161 53.9701C7.77005 53.092 4.42537 50.3952 2.59919 46.0099C2.10136 44.8091 1.42843 43.6609 0.835542 42.4851C0.557861 42.6327 0.275179 42.7803 0 42.9279C0.0250162 43.0004 0.0525335 43.0705 0.0775498 43.143C8.70565 67.9617 23.0049 89.4006 48.6791 103.895C48.549 103.955 48.4139 104.015 48.2839 104.073C44.4289 105.796 40.5338 107.5 36.6863 109.294C31.543 111.695 26.5247 114.484 19.5602 112.115C19.9204 112.348 20.2757 112.581 20.6359 112.808C31.9908 120.153 42.9004 126.707 57.9852 124.831C57.8526 124.949 57.7275 125.066 57.6074 125.184C52.9519 129.477 49.3621 133.819 43.108 135.538C40.769 136.178 38.6876 137.529 36.5312 138.615C34.3623 139.711 32.2409 140.889 30.1046 142.03C30.1296 142.097 30.1571 142.172 30.1821 142.24C30.2321 142.393 30.2897 142.538 30.3422 142.69C31.543 142.553 32.8038 142.583 33.927 142.252C41.537 140.008 49.3295 139.743 57.2447 140.494C61.4199 140.887 65.49 140.416 69.0198 138.47C73.6804 135.903 78.1157 133.026 82.6037 130.235C83.7994 129.492 84.7976 128.503 85.9708 127.725C87.6394 126.617 89.0303 126.745 90.4538 128.316C92.2799 130.337 94.1462 132.439 96.4527 133.99C104.338 139.288 113.181 140.544 122.712 138.172C130.092 136.334 136.956 137.199 143.261 141.237C144.264 141.88 145.522 142.227 147.041 142.808C147.228 142.88 147.421 142.953 147.613 143.03C142.655 136.589 136.118 132.776 128.566 130.477C125.254 129.472 123.253 127.55 120.813 125.414C120.721 125.334 120.623 125.249 120.526 125.164C124.531 124.443 128.276 123.986 131.863 123.07C135.573 122.117 139.158 120.763 142.748 119.503C146.268 118.274 149.812 117.071 153.192 115.6C156.489 114.177 159.594 112.436 162.783 110.835C162.841 110.802 162.896 110.774 162.953 110.747C162.906 110.439 162.861 110.134 162.813 109.826C149.362 117.754 138.63 112.03 127.45 104.806C127.33 104.731 127.21 104.648 127.09 104.573C138.52 102.494 146.7 97.1681 152.522 89.1029C154.58 86.2485 156.499 83.2841 158.11 80.2196C163.361 70.1831 168.424 60.0665 173.603 50C174.501 48.2539 175.574 46.5778 176.582 44.8742C176.64 44.7741 176.7 44.674 176.757 44.574C179.319 41.1142 178.346 42.0898 176.102 44.1537L176.104 44.1612ZM121.469 128.941C110.922 130.5 96.4276 131.05 91.677 126.242C91.607 126.172 91.542 126.102 91.4769 126.032C96.6828 124.141 101.751 125.597 106.842 126.34C107.12 126.382 107.402 126.417 107.677 126.455C103.195 123.518 98.2663 122.367 92.4075 123.555C92.3075 123.573 92.1999 123.593 92.0998 123.615C98.3764 117.734 109.984 117.604 115.978 123.032C118.084 124.941 119.99 127.015 121.859 128.884C121.732 128.904 121.601 128.926 121.469 128.941ZM89.7308 113.724C90.6114 111.41 92.2674 109.434 94.7315 107.793C100.7 103.81 107.778 102.457 115.28 102.679C116.313 102.754 116.358 102.619 115.695 103.024C115.478 103.16 115.237 103.262 114.992 103.357C114.667 103.482 114.487 103.612 114.272 103.742C110.209 106.277 106.277 109.001 102.016 111.247C97.1556 113.811 92.4951 116.451 89.2855 121.276C88.7576 118.439 88.8952 115.928 89.7283 113.724H89.7308ZM121.644 104.643C118.367 105.591 115.275 106.489 111.915 107.465H111.91C111.825 107.487 111.748 107.51 111.663 107.535C115.968 103.019 117.506 102.044 122.137 104.5C121.969 104.55 121.807 104.598 121.644 104.643ZM105.801 94.1261C100.625 99.4546 95.2969 104.671 89.6833 110.254C88.6401 100.858 89.7233 92.2174 92.9229 84.1397C93.0379 83.852 93.158 83.5593 93.2781 83.2766C93.4457 82.8788 93.6183 82.4811 93.7984 82.0883C96.6553 75.6642 100.891 69.5902 106.494 63.7689C107.092 66.3056 107.923 68.2669 107.948 70.2331C108.025 76.97 107.905 83.7069 107.627 90.4388C107.605 90.9766 107.445 91.5495 107.195 92.1048C107.19 92.1198 107.187 92.1299 107.177 92.1424C106.839 92.8703 106.344 93.5708 105.806 94.1261H105.801ZM91.4169 74.6735C91.4894 74.4909 91.567 74.3033 91.6445 74.1232C94.2387 67.8991 98.7141 62.4105 102.942 56.7794C105.058 59.6337 105.794 60.8746 105.053 62.413C105.058 62.4181 105.053 62.4231 105.048 62.4331C104.693 63.181 103.978 63.9941 102.899 65.0998C98.0562 70.0755 94.8591 75.7742 92.2724 81.7531C92.0998 82.1509 91.9247 82.5536 91.7571 82.9514C91.5895 83.3492 91.4219 83.7519 91.2593 84.1497C91.0742 84.61 90.8865 85.0653 90.7064 85.5256C90.6589 85.6356 90.6164 85.7407 90.5738 85.8508C90.3087 86.5087 90.0335 87.1541 89.6082 88.1898C88.9903 83.1941 89.7908 78.7737 91.4144 74.6735H91.4169ZM104.44 47.771C105.676 49.0168 105.919 50.0125 105.454 50.9256C105.449 50.9306 105.448 50.9356 105.448 50.9406C105.123 51.576 104.455 52.1789 103.547 52.7993C99.247 46.3601 94.9717 39.961 90.6964 33.5693C90.6589 33.5143 90.6264 33.4667 90.5888 33.4117C88.535 29.7168 87.9571 29.3291 91.1392 33.029C93.3732 35.353 95.6847 37.6219 97.821 40.011C100.098 42.5551 102.029 45.342 104.44 47.7735V47.771ZM129.929 28.8112C130.765 28.0332 129.802 26.93 129.454 28.9213C129.392 29.284 129.412 30.1696 129.434 30.5348C129.742 35.1078 130.074 39.6783 130.285 44.2513C130.292 44.3738 130.237 44.5014 130.145 44.6365V44.6465C129.889 44.9992 129.389 45.367 128.981 45.5896C123.543 48.5565 118.064 51.4734 112.293 54.5705C112.523 54.7231 112.345 54.6505 112.238 54.5254C109.919 51.8837 108.956 50.7905 109.409 49.4371C109.409 49.4271 109.414 49.4171 109.421 49.4096C109.736 48.5015 110.679 47.4808 112.27 45.7872C116.653 41.1392 121.259 36.6513 125.739 32.0758C126.57 31.2303 128.766 29.5667 129.922 28.8137L129.929 28.8112ZM110.639 57.0145C110.639 57.0145 110.634 57.0195 110.634 57.0245C110.237 57.7025 109.123 58.483 107.235 60.074C105.383 56.907 104.633 55.5736 105.023 54.4204V54.4154C105.281 53.6373 106.051 52.9394 107.337 51.8262C110.079 55.1433 111.245 55.9564 110.642 57.017L110.639 57.0145ZM119.2 76.8725C116.633 81.0752 113.616 85.0653 110.774 89.1404C110.489 89.0353 110.207 88.9353 109.921 88.8352C110.041 87.762 110.152 86.6838 110.292 85.6106C111.217 78.2759 111.18 70.9861 108.533 63.8665C108.26 63.136 108.26 62.5506 108.425 62.0403C108.43 62.0203 108.443 62.0078 108.45 61.9878C108.991 60.4593 111.077 59.6738 111.93 57.9502C115.733 62.6207 118.397 67.1186 119.513 72.1719C119.825 73.5953 119.955 75.364 119.335 76.6273C119.292 76.7123 119.247 76.7899 119.2 76.8699V76.8725ZM122.264 72.0768C119.675 66.9985 117.079 61.9052 114.317 56.4742C114.289 56.4292 114.264 56.3816 114.244 56.3366C118.392 52.4866 123.938 49.6297 130.192 46.968C129.819 52.9019 128.326 58.3704 126.247 63.5413C126.072 63.9966 125.887 64.4469 125.689 64.8972C124.653 67.3462 123.493 69.7353 122.264 72.0768ZM67.5689 108.335H67.5639C63.6438 107.157 59.6813 105.961 55.2334 104.628C55.1008 104.585 54.9682 104.543 54.8356 104.505C61.6525 101.761 64.7521 106.532 68.9298 108.746C68.477 108.608 68.0267 108.473 67.5689 108.335ZM85.2704 116.188C78.6236 112.135 71.8342 108 64.7546 103.685C64.5794 103.577 64.4043 103.472 64.2292 103.365C72.5196 103.059 83.5518 110.004 85.5931 116.386C85.483 116.321 85.3805 116.253 85.2704 116.188ZM43.5308 51.2808C43.5183 51.1457 43.5058 51.0031 43.4933 50.8681C48.5565 53.3697 53.1946 55.6286 57.77 57.9827C58.1853 58.1978 58.7031 58.6156 58.3454 59.5437C56.1315 65.3324 54.1602 71.1938 51.9337 77.3102C51.9337 77.3102 51.9304 77.3069 51.9237 77.3002V77.2952C47.5734 69.1399 44.3813 60.787 43.5308 51.2808ZM42.0573 31.5405C44.629 33.104 46.7854 34.3148 48.8142 35.6632C53.5198 38.7902 58.1278 42.0373 62.8583 45.1368C64.5444 46.24 65.0798 47.2957 64.3743 48.7842L64.3693 48.7892C64.2567 49.0294 64.1091 49.282 63.929 49.5472C62.3455 51.8712 61.1322 54.3878 59.7863 56.7719C54.4929 54.2878 49.4471 51.9412 44.4289 49.5422C43.941 49.312 43.3382 48.7942 43.3056 48.3814C42.8578 43.0905 42.5051 37.7845 42.0898 31.9658C42.0773 31.8257 42.0698 31.6781 42.0573 31.538V31.5405ZM55.5561 83.3967C53.85 81.3278 53.6824 79.3115 54.5229 76.8725C56.4417 71.3088 58.0352 65.6652 59.8289 59.7738C59.8664 59.6638 59.8964 59.5487 59.9339 59.4336C65.7177 62.4281 64.8947 61.5 64.0391 65.9303C62.5681 73.5303 61.1372 81.1352 59.6512 88.9678C59.6287 88.9378 59.6087 88.9128 59.5937 88.8827C58.3104 87.1216 57.0446 85.1878 55.5586 83.3967H55.5561ZM65.2099 60.4443L65.1748 60.4543C63.7939 59.5537 62.7032 58.8407 61.3073 57.9301C61.2973 57.9251 61.2848 57.9151 61.2748 57.9101C62.9684 54.8682 64.662 51.8137 66.3606 48.7617C66.5357 48.7467 66.6708 48.9218 66.8209 49.0344C66.9835 49.1569 67.1336 49.287 67.2412 49.4496C67.6439 50.055 68.2668 50.4753 68.1167 51.0657C67.3387 54.1001 66.2831 57.0846 65.2124 60.4443H65.2099ZM77.2252 30.3697C77.2252 30.3697 77.2202 30.3797 77.2127 30.3847C74.651 36.241 72.0793 42.0923 69.5076 47.9461C69.305 47.9662 69.1899 47.8111 69.0548 47.6935C68.8622 47.5234 68.6896 47.3383 68.562 47.1256C68.3319 46.7379 67.9842 46.4652 68.0842 46.0524V46.0474C68.0967 45.9849 68.1217 45.9223 68.1518 45.8648C70.9811 40.4913 73.9505 35.1754 77.3803 30.022C77.3277 30.1371 77.2777 30.2572 77.2252 30.3722V30.3697ZM86.5887 87.1116C86.5887 87.1116 86.5887 87.1016 86.5837 87.0966C82.5436 79.5442 77.2827 72.6347 71.1062 66.4081C67.749 63.0209 66.9185 60.064 68.4319 56.3491C68.4319 56.3491 68.4269 56.3491 68.4319 56.3441C68.522 56.114 68.6246 55.8838 68.7372 55.6437C68.7897 55.5236 68.8447 55.4035 68.8923 55.2834C68.9148 55.2359 68.9348 55.1884 68.9523 55.1383C69.3125 54.2853 69.5852 53.3522 69.998 52.1664C70.0355 52.0563 70.078 51.9412 70.1205 51.8212C79.5066 63.0159 83.3316 75.5766 87.1366 88.1498C86.959 87.7995 86.7739 87.4568 86.5887 87.1116ZM46.3226 68.9998C50.9331 81.1252 58.1603 91.9748 68.8847 100.896C69.1349 101.101 69.2975 101.386 69.7003 101.869L69.295 101.859C66.7709 101.801 64.5019 101.821 62.2604 101.621C61.2498 101.526 60.1691 101.056 59.336 100.505C53.9025 96.9255 50.1551 92.0923 46.5477 87.1766C44.0511 83.7844 41.6646 80.3197 39.1504 76.7749C39.1704 76.9925 39.2155 77.2227 39.2755 77.4678V77.4728C40.4863 82.7613 49.1044 93.9761 57.8676 101.634C57.75 101.684 57.6374 101.729 57.5249 101.779C53.3246 103.49 50.6704 103.112 46.4201 100.185C42.2174 97.2882 37.6119 94.7165 33.9921 91.3368C29.0889 86.7589 24.6685 81.7231 20.5734 76.5647C16.6283 71.5865 13.2336 66.263 9.8539 60.9696C8.65812 59.0909 8.10026 56.902 7.19718 54.5705C7.15215 54.4429 7.09961 54.3103 7.04708 54.1827C16.4707 56.149 25.1939 57.9451 33.8995 59.8089C35.413 60.1366 36.889 60.6794 38.3124 61.2598C42.2124 62.8533 44.8541 65.1348 46.3226 68.9998ZM56.0189 106.474C62.6832 109.038 69.7078 110.872 76.4622 113.279C79.7468 114.449 82.8738 116.108 84.8851 119.503C84.72 119.415 84.5624 119.335 84.3923 119.257H84.3873C77.4353 115.875 70.9786 117.001 65.1598 120.413C59.2835 123.858 53.2171 124.141 46.6153 123.06C39.3306 121.864 33.1365 118.822 27.3728 115.037C27.2852 114.982 27.2027 114.927 27.1176 114.87C30.9751 113.266 34.72 111.72 38.455 110.152C41.2818 108.963 44.1312 107.803 46.9005 106.519C49.97 105.093 52.7017 105.196 56.0239 106.474H56.0189ZM74.3508 134.202H74.3458C69.4326 136.834 65.1148 139.305 59.4861 139.15C52.9394 138.97 46.3776 138.948 40.1886 138.863C40.0485 138.86 39.9159 138.863 39.7833 138.858C49.9174 132.706 61.8101 132.313 74.8711 133.922C74.696 134.015 74.5259 134.107 74.3508 134.205V134.202ZM85.7807 123.243C79.4991 122.757 74.1031 123.35 69.25 126.26C69.4226 126.24 69.6027 126.219 69.7753 126.207C74.736 125.687 79.6117 125.171 84.8401 124.626C84.7976 124.736 84.7501 124.846 84.6975 124.951C82.8163 129.056 77.1351 132.321 73.0574 132.176C66.5457 131.956 60.0265 131.816 53.3171 131.636L53.112 131.631C59.8239 125.396 66.4131 118.937 77.5629 119.12C80.8475 119.175 83.5843 120.461 86.2811 123.288C86.1134 123.273 85.9483 123.26 85.7807 123.245V123.243ZM87.3317 100.958C86.9265 104.846 87.0415 108.776 86.924 112.686C86.8789 112.698 86.8389 112.713 86.7939 112.726C86.6313 112.776 86.4637 112.823 86.3011 112.873C85.2379 111.618 84.3048 110.249 83.0765 109.126C81.2478 107.447 79.4791 105.514 77.2151 104.435C71.0612 101.511 67.011 96.7904 62.6382 92.325C62.0878 91.7621 61.9753 90.6539 62.0903 89.8484C63.2486 81.588 64.4869 73.3452 65.8052 64.4219C65.8253 64.2968 65.8403 64.1667 65.8603 64.0391C67.0786 64.9597 67.6915 65.2624 68.0517 65.7177C73.0975 72.1944 78.3809 78.5435 83.0364 85.2304C86.3261 89.9584 87.9246 95.2569 87.3317 100.963V100.958ZM87.4768 81.7756C87.4618 81.7306 87.4393 81.6881 87.4243 81.643C85.9133 77.718 84.4398 73.7854 82.8663 69.8779C80.1796 63.2111 76.7424 56.8795 71.9242 51.1307C71.2963 50.3877 71.3363 48.8592 71.7041 47.8861C74.7235 39.9435 77.9081 32.0483 81.0026 24.1307C81.4254 23.0375 81.6756 21.8942 82.1183 20.3157C82.1509 20.1856 82.1934 20.0505 82.2309 19.9154C86.0809 31.578 93.3757 41.1042 100.065 50.8781C101.418 52.8543 101.991 54.5079 101.183 56.2891C101.183 56.2941 101.178 56.2941 101.178 56.2941C100.911 56.902 100.468 57.5199 99.8423 58.1778C97.5634 60.5744 95.9198 63.4337 94.0261 66.113C92.2674 68.6071 90.8215 71.1963 89.7058 73.9105C89.6107 74.1357 89.5206 74.3608 89.4356 74.586C88.5425 76.89 87.8871 79.2815 87.4793 81.7731L87.4768 81.7756ZM137.404 136.831C137.404 136.831 137.394 136.826 137.387 136.826C131.683 134.68 125.867 136.118 120.168 137.162C111.735 138.705 104.233 137.162 97.3732 132.761C96.6528 132.296 95.9899 131.758 95.3219 131.233C95.3169 131.233 95.3169 131.228 95.3169 131.228C95.1093 131.063 94.9092 130.908 94.6965 130.745C102.001 132.366 109.088 131.748 116.14 131.003C125.061 130.059 132.479 132.921 139.29 137.677C138.668 137.344 138.035 137.067 137.402 136.831H137.404ZM148.449 115.66H148.444C139.561 119.435 130.782 123.135 120.778 123.483C119.71 123.518 118.262 123.193 117.581 122.557C111.337 116.756 104.068 116.526 96.185 119.237C95.4995 119.47 94.8191 119.725 94.1236 119.938C94.0061 119.973 93.831 119.88 93.2181 119.705C93.158 119.69 93.098 119.668 93.0254 119.653C94.9992 118.024 96.6053 116.388 98.539 115.152C106.119 110.319 114.89 107.788 123.845 105.686C124.563 105.516 125.492 105.664 126.202 105.924C127.208 106.294 128.153 106.849 129.044 107.43C135.038 111.357 141.352 114.669 149.089 115.392C148.874 115.483 148.662 115.575 148.454 115.663L148.449 115.66ZM169.603 53.1745C169.573 53.2521 169.538 53.3322 169.508 53.4147C169.435 53.5823 169.358 53.7599 169.28 53.9476C169.237 54.0426 169.197 54.1402 169.16 54.2352C169.035 54.5279 168.902 54.8431 168.765 55.1658C168.675 55.386 168.58 55.6061 168.477 55.8313C168.179 56.5167 167.847 57.2297 167.491 57.9276C163.356 66.0204 159.549 74.2607 154.853 82.0958C151.984 86.8864 148.054 91.2843 144.004 95.4095C139.253 100.25 132.333 102.131 125.479 103.532C123.61 103.912 121.294 102.672 118.437 101.921C118.354 101.899 118.267 101.879 118.184 101.856C130.948 93.5458 137.937 82.0983 145.422 70.9686C145.487 70.8735 145.55 70.7735 145.615 70.6784C149.097 65.3249 146.87 68.1193 144.982 70.2932C142.578 73.4877 140.063 76.6248 137.797 79.8944C132.414 87.682 126.172 94.8141 117.887 100.45C117.121 100.973 116.148 101.649 115.292 101.626C109.514 101.466 103.897 101.921 97.9836 104.408H97.9787C97.8761 104.448 97.781 104.495 97.681 104.535C102.336 99.6773 106.819 95.5946 110.494 91.0241C115.25 85.1053 119.908 79.0389 123.615 72.5947C127.946 65.0648 134.135 60.1266 143.563 58.3479C148.076 57.4949 152.647 56.8569 157.13 55.9163C161.467 55.0107 165.73 53.835 169.748 52.8468C169.7 52.9519 169.653 53.062 169.605 53.1771L169.603 53.1745Z" fill="url(#paint2_linear_0_191)"/>
<path d="M296.169 133.885V133.388C297.063 133.388 297.48 133.089 297.48 132.236V121.569C297.48 120.814 297.063 120.635 296.268 120.635L296.169 120.356L298.671 119.443V129.614L302.901 125.899C303.099 125.72 303.179 125.561 303.179 125.423C303.179 125.085 302.643 124.887 301.847 124.887V124.391H305.819V124.887C304.925 124.887 304.41 125.226 303.772 125.821L301.27 128.027L304.587 132.517C305.024 133.092 305.58 133.391 306.454 133.391V133.887H302.024V133.391C302.779 133.391 303.296 133.232 303.296 132.855C303.296 132.735 303.237 132.597 303.117 132.418L300.474 128.742L298.666 130.332V132.238C298.666 133.092 299.064 133.391 299.998 133.391V133.887H296.164L296.169 133.885Z" fill="#CEAD51"/>
<path d="M317.324 129.258C317.324 131.82 315.893 134.203 312.795 134.203C309.697 134.203 308.267 131.818 308.267 129.258C308.267 126.698 309.676 124.271 312.795 124.271C315.914 124.271 317.324 126.714 317.324 129.258ZM309.557 129.258C309.557 131.562 310.55 133.727 312.795 133.727C315.04 133.727 316.013 131.562 316.013 129.258C316.013 126.953 315.019 124.748 312.795 124.748C310.571 124.748 309.557 126.953 309.557 129.258Z" fill="#CEAD51"/>
<path d="M320.326 131.024C321.221 132.237 322.49 133.667 324.696 133.667C326.007 133.667 327.001 132.913 327.001 131.62C327.001 130.707 326.285 130.21 324.199 129.555C321.101 128.6 320.386 127.747 320.386 126.457C320.386 125.245 321.577 124.272 323.484 124.272C324.577 124.272 325.211 124.628 325.609 124.628C325.687 124.628 325.747 124.607 325.807 124.589L326.543 124.251L327.675 127.091L327.337 127.25C326.9 126.457 325.409 124.768 323.484 124.768C322.254 124.768 321.398 125.364 321.398 126.457C321.398 127.43 322.392 127.846 324.199 128.402C326.92 129.237 327.994 130.031 327.994 131.62C327.994 133.389 326.345 134.203 324.696 134.203C323.565 134.203 322.909 133.805 322.352 133.805C322.254 133.805 322.155 133.805 322.053 133.844L321.239 134.182L320.087 131.144L320.326 131.024Z" fill="#CEAD51"/>
<path d="M330.203 133.885V133.409C331.197 133.409 331.613 133.05 331.613 132.296V126.477C331.613 125.582 331.197 125.405 330.281 125.405L330.203 125.067L332.804 124.273V126.061C333.58 125.306 334.771 124.273 336.36 124.273C337.315 124.273 338.327 124.869 338.626 126.001C339.539 125.147 340.751 124.273 342.182 124.273C343.612 124.273 344.486 125.384 344.486 126.458V132.298C344.486 133.053 344.983 133.411 345.896 133.411V133.887H341.963V133.411C342.876 133.411 343.295 133.053 343.295 132.298V126.776C343.295 125.962 342.699 125.127 341.508 125.127C340.436 125.127 339.481 125.782 338.628 126.596V132.298C338.628 133.053 339.065 133.411 339.939 133.411V133.887H336.105V133.411C337.059 133.411 337.437 133.053 337.437 132.298V126.755C337.437 125.92 336.76 125.166 335.769 125.166C334.497 125.166 333.704 125.762 332.809 126.695V132.298C332.809 133.053 333.186 133.411 334.18 133.411V133.887H330.208L330.203 133.885Z" fill="#CEAD51"/>
<path d="M349.313 128.899C349.313 132.356 351.04 133.506 352.947 133.506C354.497 133.506 355.688 132.871 356.682 131.62L356.96 131.859C356.086 133.149 354.913 134.203 352.671 134.203C349.911 134.203 348.043 132.216 348.043 129.216C348.043 126.456 349.83 124.271 352.572 124.271C355.313 124.271 356.822 125.96 356.822 128.899H349.315H349.313ZM355.529 128.342C355.41 125.861 354.338 124.748 352.551 124.748C350.863 124.748 349.432 126.277 349.313 128.342H355.529Z" fill="#CEAD51"/>
<path d="M359.049 125.066V124.668C360.42 124.548 361.234 123.536 361.333 121.211H361.749V124.488H364.431V125.063H361.749V132.235C361.749 132.971 362.225 133.348 363.039 133.348C363.656 133.348 364.311 132.911 364.808 132.315L365.047 132.495C364.392 133.707 363.557 134.204 362.506 134.204C361.374 134.204 360.56 133.488 360.56 131.959V125.066H359.051H359.049Z" fill="#CEAD51"/>
<path d="M376.074 129.258C376.074 131.82 374.643 134.203 371.545 134.203C368.447 134.203 367.017 131.818 367.017 129.258C367.017 126.698 368.427 124.271 371.545 124.271C374.664 124.271 376.074 126.714 376.074 129.258ZM368.307 129.258C368.307 131.562 369.301 133.727 371.545 133.727C373.79 133.727 374.763 131.562 374.763 129.258C374.763 126.953 373.769 124.748 371.545 124.748C369.321 124.748 368.307 126.953 368.307 129.258Z" fill="#CEAD51"/>
<path d="M378.376 133.886V133.389C379.349 133.389 379.687 133.012 379.687 132.177V121.551C379.687 120.955 379.388 120.617 378.376 120.617L378.298 120.339L380.881 119.426V132.177C380.881 133.012 381.279 133.389 382.27 133.389V133.886H378.376Z" fill="#CEAD51"/>
<path d="M393.435 129.258C393.435 131.82 392.005 134.203 388.907 134.203C385.809 134.203 384.378 131.818 384.378 129.258C384.378 126.698 385.788 124.271 388.907 124.271C392.025 124.271 393.435 126.714 393.435 129.258ZM385.668 129.258C385.668 131.562 386.662 133.727 388.907 133.727C391.151 133.727 392.124 131.562 392.124 129.258C392.124 126.953 391.131 124.748 388.907 124.748C386.683 124.748 385.668 126.953 385.668 129.258Z" fill="#CEAD51"/>
<path d="M402.896 125.065C403.414 124.49 404.028 124.17 404.584 124.17C405.001 124.17 405.498 124.409 405.498 124.825C405.498 125.242 405.201 125.561 404.803 125.561C404.366 125.561 404.127 125.205 403.77 125.205C403.612 125.205 403.453 125.265 403.234 125.423C403.671 125.98 403.929 126.695 403.929 127.429C403.929 128.105 403.75 130.548 399.957 130.548C399.58 130.548 399.242 130.529 398.745 130.389C398.188 130.527 397.751 130.746 397.751 131.006C397.751 131.224 397.811 131.523 398.526 131.661C399.637 131.88 401.286 132.098 402.519 132.317C403.95 132.553 405.061 133.131 405.061 134.421C405.061 136.148 402.935 136.687 400.254 136.687C397.015 136.687 395.665 135.911 395.665 134.6C395.665 133.646 397.374 132.892 398.526 132.634C397.036 132.335 396.539 131.958 396.539 131.422C396.539 130.826 397.671 130.41 398.266 130.21C397.195 129.692 396.518 128.68 396.498 127.408C396.518 125.382 398.147 124.269 400.233 124.269C401.604 124.269 402.457 124.667 402.894 125.062L402.896 125.065ZM403.95 134.778C403.95 134.101 403.372 133.506 402.022 133.287C401.406 133.188 400.631 133.048 399.46 132.91C397.494 133.347 396.817 134.023 396.817 134.697C396.817 135.55 398.069 136.187 400.571 136.187C402.517 136.187 403.947 135.553 403.947 134.778H403.95ZM397.772 127.408C397.772 128.738 398.526 130.069 400.235 130.069C401.944 130.069 402.678 128.738 402.678 127.408C402.678 126.079 401.923 124.747 400.235 124.747C398.547 124.747 397.772 126.079 397.772 127.408Z" fill="#CEAD51"/>
<path d="M407.345 133.886V133.389C408.258 133.389 408.656 133.21 408.656 132.416V126.358C408.656 125.84 408.438 125.463 407.324 125.463L407.265 125.166L409.848 124.272V132.416C409.848 133.212 410.147 133.389 411.179 133.389V133.886H407.345ZM410.324 120.258C410.324 120.755 409.967 121.252 409.27 121.252C408.573 121.252 408.238 120.755 408.238 120.258C408.238 119.761 408.555 119.265 409.27 119.265C409.986 119.265 410.324 119.761 410.324 120.258Z" fill="#CEAD51"/>
<path d="M422.244 133.23C421.828 133.786 421.43 134.203 420.655 134.203C419.76 134.203 419.583 133.547 419.583 132.852C418.748 133.628 417.796 134.203 416.186 134.203C414.259 134.203 413.385 133.188 413.385 131.898C413.385 130.129 415.45 128.779 419.583 128.144V126.734C419.583 125.543 419.006 124.747 417.815 124.747C416.306 124.747 415.708 125.164 415.351 126.178C415.193 126.615 414.974 127.013 414.477 127.013C413.98 127.013 413.684 126.695 413.684 126.159C413.684 125.166 415.312 124.273 417.913 124.273C419.641 124.273 420.775 125.187 420.775 126.916V132.418C420.775 133.013 420.834 133.492 421.152 133.492C421.409 133.492 421.688 133.414 422.065 133.034L422.244 133.232V133.23ZM419.583 128.683C416.922 128.979 414.696 130.072 414.696 131.861C414.696 132.756 415.372 133.411 416.563 133.411C418.012 133.411 418.748 133.073 419.583 132.277V128.683Z" fill="#CEAD51"/>
<path d="M212.312 107.813H506.75" stroke="#CEAD51" stroke-width="2" stroke-miterlimit="10" stroke-linecap="round"/>
<path d="M251.032 42.2227C251.032 42.2943 251.067 42.33 251.139 42.33C251.014 43.1176 250.835 43.5114 250.602 43.5114L250.709 43.7262C250.709 43.8694 250.638 43.941 250.495 43.941C250.495 43.7978 250.423 43.7262 250.28 43.7262V43.941H250.495V44.0483C250.316 44.2452 249.958 44.7106 249.421 45.4445C248.812 46.1246 248.418 46.6974 248.239 47.1628C248.078 47.1628 247.792 47.4133 247.38 47.9145L244.588 50.9215C244.194 51.4585 242.905 52.962 240.722 55.4321L237.07 59.8352C233.365 64.7574 230.752 68.9815 229.231 72.5076C229.016 72.7224 228.765 73.4026 228.479 74.5481C228.246 74.5481 227.494 76.696 226.224 80.9917C225.508 83.766 224.935 86.2361 224.505 88.4019L224.613 88.6167C224.47 88.9746 224.291 90.4065 224.076 92.9124C224.291 94.04 224.398 94.756 224.398 95.0603C224.129 95.2751 223.807 95.3824 223.431 95.3824H222.787C222.662 95.3824 222.411 94.9171 222.035 93.9863C221.641 93.9863 221.319 91.8743 221.069 87.6501V87.2205C221.069 87.1489 221.105 87.1131 221.176 87.1131C221.033 86.8805 220.961 86.6657 220.961 86.4688V86.254C220.961 86.1824 220.997 86.1466 221.069 86.1466L220.961 85.9318V85.8244C220.961 85.7528 220.997 85.717 221.069 85.717L220.961 85.5022V85.2875C220.961 85.2159 220.997 85.1801 221.069 85.1801C221.069 85.1085 221.033 85.0727 220.961 85.0727L221.069 83.7839V82.6026C221.069 82.531 221.105 82.4952 221.176 82.4952C221.176 82.4236 221.14 82.3878 221.069 82.3878C221.212 81.475 221.284 80.6158 221.284 79.8104V79.4882C221.284 79.4166 221.319 79.3808 221.391 79.3808L221.284 79.166C221.284 79.0944 221.319 79.0586 221.391 79.0586C221.391 78.987 221.355 78.9512 221.284 78.9512C221.57 76.3022 221.928 73.6532 222.357 71.0041C222.501 70.9325 222.608 70.8967 222.68 70.8967C222.536 70.7177 222.465 70.5745 222.465 70.4672C222.733 68.6057 222.948 67.6749 223.109 67.6749C223.109 67.6033 223.073 67.5675 223.002 67.5675C223.217 66.0819 223.646 64.0414 224.291 61.4461C224.505 60.1932 224.756 59.1908 225.042 58.4391V58.3317H224.935C222.536 62.6632 218.42 69.1784 212.585 77.8773C210.902 80.4905 209.076 83.068 207.108 85.6096C205.837 87.2563 205.049 88.0797 204.745 88.0797C204.745 87.9365 204.673 87.8649 204.53 87.8649L204.638 87.6501C204.638 87.5069 204.566 87.4353 204.423 87.4353L204.101 87.6501H203.993V87.5427L208.074 81.9583C208.683 81.1349 209.936 79.2376 211.833 76.2664C215.574 70.7356 218.402 66.3325 220.317 63.057C222.25 60.05 224.326 56.4702 226.546 52.3176C228.175 49.2569 229.213 47.7176 229.66 47.6997C229.875 47.8787 229.982 48.0577 229.982 48.2367H230.197L230.519 48.0219L230.627 48.2367V48.3441C229.982 49.9192 229.66 50.7425 229.66 50.8141C228.658 52.1745 227.62 55.0383 226.546 59.4056C224.04 69.071 222.787 77.3403 222.787 84.2135V84.5357C222.787 84.6968 222.751 84.84 222.68 84.9653C222.751 85.0906 222.787 85.2338 222.787 85.3948H222.68L222.787 85.6096V85.8244C222.787 86.1108 222.751 86.3972 222.68 86.6836L222.787 87.3279L222.68 88.0797C222.859 87.9544 223.217 86.4151 223.754 83.4618L224.613 80.3474L226.438 74.7629C228.282 70.2882 230.752 65.885 233.849 61.5535C236.569 57.741 241.438 52.0492 248.454 44.4779C249.635 43.1176 250.387 42.4374 250.709 42.4374C250.709 42.509 250.745 42.5448 250.817 42.5448C250.817 42.33 250.888 42.2227 251.032 42.2227Z" fill="url(#paint3_linear_0_191)"/>
<path d="M240.011 85.507L239.741 85.8453L239.639 86.0145L239.335 86.4206V86.4882L239.166 86.8604C239.098 86.9958 239.132 87.1988 239.166 87.368V87.7064L239.47 88.0447L239.707 88.1124L239.876 88.1801L240.181 88.2139H240.621L241.128 88.0786C241.162 88.0786 241.297 87.9771 241.365 87.9432L241.737 87.8079L242.651 87.4695L242.921 87.3342L243.767 86.9958L243.903 86.9281L244.173 86.7589L244.681 86.5897L244.952 86.3867L245.087 86.3529L245.29 86.2852L246.035 86.0145L246.711 85.8115L247.286 85.5408L248.099 85.1686L248.302 85.1009L248.775 84.9656H248.978L249.384 84.7625L249.892 84.6272H250.264L250.603 84.3227V83.7474C250.569 83.7474 250.366 83.7136 250.264 83.6797C250.23 83.6459 250.027 83.6459 249.993 83.6459L249.317 83.8489L249.012 83.9166L247.354 84.3903L247.253 84.4918L246.948 84.5933L245.764 84.8979L245.628 84.9994L245.493 85.0332L245.189 85.1686L244.783 85.3039L244.478 85.3716L244.309 85.4393L243.125 85.7776L242.685 85.8792L242.482 85.9468L242.109 86.0145L241.67 86.116H241.534L241.196 86.1499C241.06 86.1499 240.993 86.1837 240.891 86.1837C240.891 86.1499 240.959 86.1499 240.993 86.0483L241.06 85.8792L241.162 85.6761L241.5 85.2024L241.568 85.1009L242.279 84.2888L242.549 84.052L242.854 83.6121L242.989 83.4767L243.294 83.2737L243.361 82.9353L243.497 82.7323L243.531 82.6308V82.4278C243.328 82.0894 243.125 81.954 242.955 81.8864L242.921 81.8525L242.583 81.6495L242.211 81.5818H241.737L240.688 81.8187L240.181 82.1232L239.775 82.3939L239.605 82.5293L239.335 82.6985L239.166 82.8338L238.624 83.1045L238.218 83.409L237.643 83.6797L237.508 83.7136L236.492 84.1873L236.256 84.3565L235.342 84.8302L235.105 84.9656L234.428 85.3039L234.225 85.3378L234.124 85.4393L233.819 85.6085L233.582 85.7776C233.007 86.116 233.007 86.0822 232.736 86.1837L232.533 86.2852L232.094 86.4206L231.789 86.5897L231.62 86.6913L230.436 87.2327L230.199 87.2665L229.691 87.4357L229.387 87.5033C229.15 87.571 229.014 87.7064 228.778 87.774V87.5372L228.811 87.4695L228.913 87.3342L229.082 87.1311L229.184 86.9281L229.387 86.4882L229.759 85.9807L229.894 85.8115L230.097 85.6085C230.097 85.6085 230.131 85.5408 230.131 85.507L230.199 85.4054L230.334 85.2363L230.537 84.9994V84.9656L230.943 84.5933L231.281 84.1873V84.1196L231.62 83.8489L231.688 83.7813L231.958 83.5444L232.195 83.409L232.5 83.1045L232.804 82.7661L232.906 82.6646L234.428 81.548L234.868 81.2435L235.037 81.142L235.917 80.6682L236.662 80.3637L237.237 80.1945L237.677 80.0592L237.88 79.9915L238.117 79.9576H239.436C239.504 79.9576 239.605 79.9238 239.673 79.9238C240.384 79.9915 240.857 79.3824 240.959 79.1117L241.027 78.8072L240.993 78.4688L240.621 78.1643C240.587 78.1643 240.485 78.1304 240.451 78.0966L239.707 77.9951H239.199L238.963 78.0628L238.76 78.1304L238.421 78.1643L238.286 78.2658C238.083 78.2996 237.914 78.4011 237.711 78.435L237.508 78.5026L237.203 78.638L235.985 79.2471C235.646 79.3486 235.545 79.4501 235.443 79.4839L235.342 79.5178L235.037 79.6531L235.004 79.6869L234.496 79.9576L234.259 80.1607L233.684 80.6344L233.007 81.2435L232.736 81.4126L232.669 81.4465L232.263 81.7849L232.026 82.0217L231.552 82.3939L229.996 83.7813L229.623 84.1196L229.319 84.3565L229.184 84.5257L228.778 84.9317L228.439 85.3378L228.202 85.6761L227.932 86.0822C227.932 86.116 227.898 86.1499 227.898 86.1499L227.695 86.3867L227.526 86.8604C227.289 87.4357 227.12 88.0447 227.289 88.5185C227.492 89.0599 228.033 89.1952 228.71 89.1275L228.947 89.1614L229.15 89.1275L229.725 88.8907L229.962 88.8568L230.639 88.62C230.639 88.62 230.74 88.4846 230.808 88.4508C230.977 88.3831 231.045 88.417 231.112 88.3493L231.349 88.3831L231.755 88.2139H232.06L232.703 87.8756C232.94 87.7064 233.176 87.571 233.413 87.4357C233.447 87.4357 233.65 87.368 233.684 87.3342L233.887 87.2665L234.225 87.0296L234.428 86.8943C234.631 86.7928 234.834 86.6236 235.037 86.5221L235.173 86.4882L235.646 86.2175L235.68 86.1837L236.289 85.913L236.526 85.8115L237.406 85.3039L238.184 84.9317L238.421 84.7964L238.658 84.6949L238.929 84.5257L239.978 83.9166L240.316 83.8489L241.263 83.4767L241.67 83.3752H241.703L241.602 83.5106L241.263 83.8828H241.23L240.959 84.1873L240.688 84.5595L240.011 85.507Z" fill="url(#paint4_linear_0_191)"/>
<path d="M260.443 68.5545H260.003L259.428 68.656L259.259 68.6222L259.158 68.656L258.582 68.7237H258.379L258.142 68.7914L257.229 68.9944H257.127L256.89 69.0282L256.789 68.9944L256.078 69.0621L255.131 69.1974L255.029 69.2312L253.676 69.4004L253.473 69.3328L252.898 69.3666L252.356 69.6035L251.916 69.6711C251.375 69.7726 251.07 69.8742 250.529 70.111L250.292 70.2125C249.92 70.3817 249.852 70.5509 249.785 70.6862L249.717 70.9908L249.751 71.4307L249.988 71.7014L250.191 71.9044L250.529 72.0397L251.138 72.1074L251.849 71.9721L252.153 71.8367L253.236 71.4307L253.541 71.3292L253.777 71.2615L254.048 71.16L255.774 70.7201L256.045 70.6524L256.924 70.4494L257.161 70.4156L257.466 70.3817L258.481 70.2464L259.496 70.1787L259.902 70.111H260.071L260.037 70.2464L259.665 70.6186L259.53 70.8554L259.259 71.16L258.853 71.6675L258.481 72.1751L258.413 72.3104H258.312L257.838 72.9872L257.669 73.3594L257.296 73.7316L257.093 74.0361C256.958 74.2392 256.89 74.3407 256.654 74.5775L256.045 75.3558L255.875 75.525C255.469 76.0664 255.029 76.7431 254.623 77.3183L254.319 77.589L254.217 77.7582C253.913 78.1304 253.71 78.435 253.507 78.7057L253.168 79.1456L252.695 79.6193L252.492 79.9576L252.018 80.5667C252.018 80.6006 251.984 80.6006 251.984 80.6344L251.713 80.9728L251.51 81.2773L251.273 81.6495L251.07 81.954L250.664 82.4616L250.461 82.6646C250.461 82.6985 250.428 82.7661 250.428 82.8338L250.157 83.1383L249.886 83.4767L249.751 83.6797L249.48 83.9843L249.311 84.2211L249.04 84.5595L248.77 84.9656L248.6 85.2024C248.533 85.2701 248.499 85.4054 248.431 85.4731L248.262 85.6761L248.059 85.913C248.059 85.9468 247.991 86.0822 247.991 86.1499L247.822 86.3867L247.45 87.0635L247.315 87.4018L247.078 87.7064L247.01 87.8756V87.9771L246.841 88.2139C246.841 88.2816 246.773 88.4846 246.773 88.5523C246.604 89.0599 246.502 89.3644 246.469 89.6013C246.469 89.6351 246.435 89.7704 246.435 89.8381V90.2442L246.502 90.5487L246.672 90.9209L247.078 91.0901L247.281 91.1239L247.518 91.1916L247.687 91.2254L248.127 91.1916L249.379 90.8194L250.258 90.5149L250.8 90.2442L251.138 90.1765L251.747 89.7704L252.289 89.5674L252.627 89.3644H252.728L253.101 89.0599L253.439 88.8907L254.116 88.5185L254.319 88.417C254.319 88.417 254.42 88.3493 254.454 88.3493L254.725 88.3154L254.894 88.2478L255.165 88.1463L255.368 88.1124C255.402 88.0786 255.503 88.0447 255.571 87.9771C255.605 87.9432 255.706 87.8417 255.774 87.8079H255.808L256.214 87.6725L256.451 87.6049L256.89 87.2327L257.736 86.8943L257.973 86.7251L258.447 86.4544L258.515 86.3867L258.751 86.2514L259.225 86.0145L259.53 85.9468L259.902 85.7776L260.443 85.4731L260.816 85.2363L261.086 85.1009L261.12 85.0671L262.034 84.458L262.101 84.3903L262.304 84.2888L262.643 84.0858L262.677 83.8151L262.643 83.5106L262.44 83.3414L262.034 83.3752L261.797 83.5106L261.729 83.5444L261.628 83.5782L261.458 83.6459L260.917 83.9504L260.714 84.1196L260.613 84.1535L259.733 84.6272L259.259 84.7964L258.853 84.9317L258.312 85.2701L258.176 85.4393L257.703 85.6423L257.33 85.7776L257.093 85.8792L256.687 86.116L255.165 86.8266L255.029 86.8604L254.623 87.0973L253.642 87.5372L253.507 87.6049L253.202 87.6725L252.864 87.8756L252.221 88.1801L251.341 88.62H251.138L250.969 88.7215L250.664 88.823L250.428 88.8568L250.157 89.026L249.615 89.229L249.345 89.3982L249.074 89.4659L248.837 89.5336L248.228 89.6689H248.194L248.228 89.3644C248.228 89.229 248.363 89.026 248.363 88.8907L248.634 88.4508L248.668 88.2139V88.0447L248.905 87.571L249.277 86.8604L249.615 86.3867C249.683 86.1837 249.785 86.0483 249.852 85.8453L250.225 85.1686L250.36 84.9656L250.901 84.255C251.003 84.0858 251.037 84.1535 251.104 83.9843L251.713 83.1383L252.322 82.2247L253.202 81.142L253.642 80.6344L254.386 79.6869L254.522 79.3824L254.59 79.2809L254.826 78.9764L255.063 78.7395L255.3 78.4688L255.503 78.2319L255.706 77.8597C255.774 77.7582 255.841 77.6229 255.909 77.5552L256.112 77.3522L256.214 77.1492L256.857 76.3371L257.093 76.0325L258.176 74.6114L258.819 73.9008L259.124 73.4947L259.631 72.7503L260.173 72.1413C260.173 72.1413 260.206 72.0397 260.206 72.0059C260.376 71.769 260.511 71.6337 260.714 71.3968L260.917 71.2615L261.019 71.0246L261.458 70.4494L261.763 70.0772L262.981 69.8403L263.387 69.8065L264.368 69.7726L264.639 69.6711L264.775 69.6373C265.857 69.6035 266.94 69.6035 268.023 69.6035H268.26C268.361 69.6035 268.463 69.6373 268.564 69.6373L268.666 69.6711L268.801 69.6373C269.038 69.6373 269.309 69.6373 269.579 69.6711L270.019 69.7388H270.324C270.391 69.7388 270.493 69.7726 270.595 69.7726L271.204 69.8742L271.474 69.8403H271.813C271.847 69.8403 271.948 69.8742 272.016 69.8742L272.591 69.9757C272.76 69.9757 273.031 70.0433 273.234 70.0433C273.64 70.111 273.978 70.1449 274.35 70.2464L274.858 70.3817L275.264 70.5847L275.569 70.6524C275.738 70.6524 276.008 70.7201 276.178 70.7201L276.685 70.9231C276.821 71.1261 277.091 71.1938 277.159 71.1938L277.362 71.2615L277.7 71.4645C277.7 71.4645 277.734 71.4983 277.768 71.4983C277.768 71.4983 277.937 71.5999 278.039 71.6337L278.546 72.0059H278.58L278.885 72.2766L279.155 72.615L279.392 73.021L279.595 73.5286C279.663 73.6301 279.798 73.9346 279.866 74.1038C279.866 74.1715 279.9 74.273 279.9 74.3407L280.001 74.9159L280.17 75.1189L280.407 75.1866L280.577 74.9497L280.813 74.3745V73.9685L280.712 73.6639L280.543 73.021L280.407 72.7165L280.17 72.3104L280.137 72.2766L279.731 71.7014C279.697 71.7014 279.663 71.6675 279.595 71.6675L279.494 71.566L279.189 71.2953L278.918 70.9569H278.682L278.479 70.8216L278.343 70.5847L277.87 70.3479L277.633 70.314C277.667 70.314 277.633 70.2802 277.599 70.2464C277.565 70.2464 277.565 70.2464 277.497 70.2125L276.821 69.9418C276.787 69.9418 276.719 69.908 276.685 69.8742L275.535 69.4004C275.399 69.3666 275.399 69.4004 275.399 69.4004L275.196 69.2312C275.163 69.2312 275.095 69.1974 275.027 69.1974L274.35 69.1297L274.08 68.9606H273.538C273.505 68.9606 273.369 68.9267 273.335 68.8929L272.422 68.656L272.083 68.6222C272.05 68.6222 271.948 68.5883 271.914 68.5883L271.508 68.4868L271.136 68.453H270.899C270.73 68.453 270.561 68.5207 270.392 68.5207L269.918 68.4192L269.546 68.4868C269.478 68.4868 269.241 68.453 269.173 68.4192L268.733 68.3176H268.497L268.192 68.2161H267.245L266.263 68.3176L265.011 68.2838L263.996 68.3853L263.455 68.4192L263.116 68.453L263.421 68.0808L264.673 66.6596L265.417 65.9152L265.756 65.5092L266.23 65.1369L266.433 64.8662L266.737 64.5279L266.974 64.2233L267.312 63.9526L267.515 63.6819L267.481 63.1744L267.38 62.8699L267.008 62.4976L266.703 62.4638L266.331 62.5315L265.959 62.9037L265.62 63.3097L265.485 63.4451L265.316 63.5804L265.045 63.885L264.673 64.2233L264.504 64.494V64.5279L264.335 64.7647L264.233 64.8662L264.098 65.0354L263.861 65.2723C263.861 65.2723 263.827 65.34 263.827 65.3738L263.726 65.4753L263.353 65.9829L263.218 66.1521L262.846 66.5581L262.338 67.2349L261.425 68.4868L261.391 68.5883L260.951 68.5207L260.443 68.5545Z" fill="url(#paint5_linear_0_191)"/>
<path d="M271.07 85.507L270.799 85.8453L270.697 86.0145L270.393 86.4206V86.4882L270.224 86.8604C270.156 86.9958 270.19 87.1988 270.224 87.368V87.7064L270.528 88.0447L270.765 88.1124L270.934 88.1801L271.239 88.2139H271.679L272.186 88.0786C272.22 88.0786 272.356 87.9771 272.423 87.9432L272.795 87.8079L273.709 87.4695L273.98 87.3342L274.826 86.9958L274.961 86.9281L275.232 86.7589L275.739 86.5897L276.01 86.3867L276.145 86.3529L276.348 86.2852L277.093 86.0145L277.769 85.8115L278.345 85.5408L279.157 85.1686L279.36 85.1009L279.834 84.9656H280.037L280.443 84.7625L280.95 84.6272H281.322L281.661 84.3227V83.7474C281.627 83.7474 281.424 83.7136 281.322 83.6797C281.289 83.6459 281.086 83.6459 281.052 83.6459L280.375 83.8489L280.07 83.9166L278.412 84.3903L278.311 84.4918L278.006 84.5933L276.822 84.8979L276.687 84.9994L276.551 85.0332L276.247 85.1686L275.841 85.3039L275.536 85.3716L275.367 85.4393L274.183 85.7776L273.743 85.8792L273.54 85.9468L273.168 86.0145L272.728 86.116H272.592L272.254 86.1499C272.119 86.1499 272.051 86.1837 271.949 86.1837C271.949 86.1499 272.017 86.1499 272.051 86.0483L272.119 85.8792L272.22 85.6761L272.559 85.2024L272.626 85.1009L273.337 84.2888L273.607 84.052L273.912 83.6121L274.047 83.4767L274.352 83.2737L274.42 82.9353L274.555 82.7323L274.589 82.6308V82.4278C274.386 82.0894 274.183 81.954 274.014 81.8864L273.98 81.8525L273.641 81.6495L273.269 81.5818H272.795L271.746 81.8187L271.239 82.1232L270.833 82.3939L270.664 82.5293L270.393 82.6985L270.224 82.8338L269.682 83.1045L269.276 83.409L268.701 83.6797L268.566 83.7136L267.551 84.1873L267.314 84.3565L266.4 84.8302L266.163 84.9656L265.487 85.3039L265.284 85.3378L265.182 85.4393L264.877 85.6085L264.641 85.7776C264.065 86.116 264.065 86.0822 263.795 86.1837L263.592 86.2852L263.152 86.4206L262.847 86.5897L262.678 86.6913L261.494 87.2327L261.257 87.2665L260.749 87.4357L260.445 87.5033C260.208 87.571 260.073 87.7064 259.836 87.774V87.5372L259.87 87.4695L259.971 87.3342L260.14 87.1311L260.242 86.9281L260.445 86.4882L260.817 85.9807L260.952 85.8115L261.155 85.6085C261.155 85.6085 261.189 85.5408 261.189 85.507L261.257 85.4054L261.392 85.2363L261.595 84.9994V84.9656L262.001 84.5933L262.34 84.1873V84.1196L262.678 83.8489L262.746 83.7813L263.016 83.5444L263.253 83.409L263.558 83.1045L263.862 82.7661L263.964 82.6646L265.487 81.548L265.926 81.2435L266.096 81.142L266.975 80.6682L267.72 80.3637L268.295 80.1945L268.735 80.0592L268.938 79.9915L269.175 79.9576H270.494C270.562 79.9576 270.664 79.9238 270.731 79.9238C271.442 79.9915 271.916 79.3824 272.017 79.1117L272.085 78.8072L272.051 78.4688L271.679 78.1643C271.645 78.1643 271.543 78.1304 271.51 78.0966L270.765 77.9951H270.258L270.021 78.0628L269.818 78.1304L269.479 78.1643L269.344 78.2658C269.141 78.2996 268.972 78.4011 268.769 78.435L268.566 78.5026L268.261 78.638L267.043 79.2471C266.705 79.3486 266.603 79.4501 266.502 79.4839L266.4 79.5178L266.096 79.6531L266.062 79.6869L265.554 79.9576L265.317 80.1607L264.742 80.6344L264.065 81.2435L263.795 81.4126L263.727 81.4465L263.321 81.7849L263.084 82.0217L262.61 82.3939L261.054 83.7813L260.682 84.1196L260.377 84.3565L260.242 84.5257L259.836 84.9317L259.497 85.3378L259.261 85.6761L258.99 86.0822C258.99 86.116 258.956 86.1499 258.956 86.1499L258.753 86.3867L258.584 86.8604C258.347 87.4357 258.178 88.0447 258.347 88.5185C258.55 89.0599 259.091 89.1952 259.768 89.1275L260.005 89.1614L260.208 89.1275L260.783 88.8907L261.02 88.8568L261.697 88.62C261.697 88.62 261.798 88.4846 261.866 88.4508C262.035 88.3831 262.103 88.417 262.171 88.3493L262.407 88.3831L262.813 88.2139H263.118L263.761 87.8756C263.998 87.7064 264.235 87.571 264.471 87.4357C264.505 87.4357 264.708 87.368 264.742 87.3342L264.945 87.2665L265.284 87.0296L265.487 86.8943C265.69 86.7928 265.893 86.6236 266.096 86.5221L266.231 86.4882L266.705 86.2175L266.739 86.1837L267.348 85.913L267.584 85.8115L268.464 85.3039L269.242 84.9317L269.479 84.7964L269.716 84.6949L269.987 84.5257L271.036 83.9166L271.374 83.8489L272.322 83.4767L272.728 83.3752H272.762L272.66 83.5106L272.322 83.8828H272.288L272.017 84.1873L271.746 84.5595L271.07 85.507Z" fill="url(#paint6_linear_0_191)"/>
<path d="M283.55 88.3154L283.279 88.417L282.67 88.6877L282.501 88.7892L282.162 88.8907L282.061 88.9583L281.418 89.1952L281.046 89.3644L280.64 89.4997L280.504 89.6013L280.065 89.7366H279.963L279.659 89.5674H279.625L279.489 89.4321V89.3982L279.591 89.026L279.726 88.7553L279.828 88.3154C279.828 88.2816 279.862 88.1463 279.895 88.1124L280.031 87.774L280.877 86.1837L281.046 86.0145L281.35 85.4393L281.486 85.1686C281.486 85.1347 281.486 85.1347 281.52 85.1009L281.858 84.4918L282.366 83.7813C282.433 83.6459 282.535 83.5782 282.602 83.4767L282.907 82.9692L283.11 82.8L283.381 82.3263L283.787 81.9202L284.057 81.4465L284.396 80.9728L284.666 80.4652C284.666 80.4314 284.7 80.3299 284.734 80.2622L285.005 79.8561L285.614 79.0102L285.682 78.9087L285.783 78.7395L285.952 78.5703L286.291 78.0966C286.291 78.0628 286.358 78.0289 286.392 77.9951L286.697 77.589C286.697 77.5214 286.731 77.4537 286.731 77.386L287.644 76.2356L288.016 75.7957L288.389 75.4235L288.592 75.0512L288.828 74.7129C289.268 74.0361 289.81 73.3594 290.25 72.6826L290.486 72.4458L291.163 71.4983L291.705 70.7539L292.144 70.314L292.855 69.2989L293.092 69.0959L293.532 68.4868L293.836 68.1823L294.175 67.6747L294.513 67.3364L295.291 66.2197L295.9 65.6107L296.34 65.2046L296.679 64.9001L296.983 64.6971L297.254 64.494L297.964 63.9865L298.371 63.6143C298.574 63.4451 298.912 62.836 298.438 62.2608C298.201 61.9901 297.964 61.9224 297.761 61.9224C297.457 61.9224 297.322 61.9901 296.983 62.1931L296.814 62.2946L296.577 62.4638L296.306 62.7345L296.103 62.8699L295.731 63.2759L295.359 63.6481L294.885 64.088L294.615 64.3925L294.479 64.5956L294.31 64.8324L294.107 65.0354L293.802 65.4415L293.701 65.6445L293.498 65.9152L293.126 66.5243L292.957 66.6935C292.889 66.795 292.72 66.998 292.652 67.1333L292.415 67.3364C292.28 67.5394 292.077 67.8101 291.941 68.0469L291.806 68.1823L290.656 69.8403L290.52 69.9757L290.283 70.2802L289.844 70.8554C289.844 70.8554 289.81 70.9231 289.81 70.9569L289.742 71.0246L289.167 71.8029L289.031 72.0736V72.1751L288.998 72.2089L288.761 72.4796C288.761 72.4796 288.625 72.6488 288.524 72.7842L288.321 73.0549L288.084 73.3256L287.847 73.7316C287.678 73.9346 287.509 74.1376 287.441 74.273L287.204 74.6114L286.967 74.8821L286.527 75.4911L286.291 75.8633L286.088 76.0325L285.783 76.4047C285.783 76.4386 285.749 76.5401 285.749 76.6078L285.546 76.8446C285.546 76.8785 285.546 76.9123 285.512 76.98L285.445 77.0476L285.242 77.3183L285.106 77.5214C285.072 77.589 284.971 77.6229 284.937 77.6906L284.802 77.8259L284.193 78.6718V78.7395L284.057 78.8749L283.719 79.3486L283.414 79.8223C283.381 79.9238 283.313 79.9576 283.279 80.0592L281.926 81.954L281.892 82.0217L281.283 82.8676L281.114 83.2399L280.911 83.5782L280.775 83.7813L280.335 84.4242H280.2L279.997 84.864L279.895 84.9656L279.523 85.4731C279.489 85.5746 279.388 85.6423 279.354 85.7438L279.117 86.0822L278.88 86.5559C278.846 86.6574 278.779 86.6574 278.745 86.7589L278.576 87.2665L278.271 87.8756L278.136 88.2139L278.102 88.417V88.4846C277.933 88.8907 277.899 89.2967 277.933 89.7028C277.967 90.0073 278.17 90.3795 278.271 90.5487L278.508 91.0563C278.542 91.0563 278.745 91.0901 278.813 91.0901L279.523 91.327L279.625 91.3946L279.828 91.4285L280.234 91.327L280.335 91.2254H280.403L280.538 91.1578L281.452 90.7517L281.723 90.7179L282.23 90.4472L282.332 90.4133L282.805 90.2442L283.313 90.075L283.584 89.9396L283.99 89.7028L284.768 89.2629C284.971 89.1614 285.174 88.9922 285.377 88.8907L285.411 88.8568L285.715 88.6538L286.189 88.3831C286.189 88.3831 286.324 88.2478 286.392 88.2139L286.798 87.9771C286.9 87.9432 287.001 87.8417 287.103 87.8079L287.204 87.7402L287.779 87.368L287.949 87.2665L288.186 87.0973L288.93 86.7251L289.37 86.3867C289.437 86.319 289.505 86.2175 289.641 86.1499C289.81 86.0145 290.013 85.8792 290.25 85.7776L290.283 85.7438L290.723 85.4731L290.96 85.2363L291.603 84.864C292.043 84.6272 292.381 84.4242 292.99 84.0181L293.058 83.9504L293.295 83.9166L293.633 83.6121L293.667 83.2737L293.599 83.0707L293.363 82.9353L293.092 82.9015L292.889 83.0368C292.821 83.0368 292.754 83.0707 292.686 83.1383L292.043 83.5444L291.738 83.7136L291.332 83.8828L291.096 84.052L290.96 84.1873L290.486 84.458L290.283 84.5933L290.148 84.7287H290.08L289.844 84.7964L289.031 85.2701L288.93 85.3716L288.795 85.4054L287.982 85.9468L287.509 86.2175L286.054 87.0635L285.817 87.2327C285.58 87.3342 285.377 87.4357 284.971 87.6049L283.55 88.3154Z" fill="url(#paint7_linear_0_191)"/>
<path d="M299.237 87.1311L299.373 87.0296L299.745 86.8943L299.88 86.8266L300.083 86.6236C300.658 86.2852 301.268 85.8453 301.877 85.4393L302.046 85.3716L302.283 85.3039L302.723 84.9317L303.027 84.7287L304.076 84.0858L304.617 83.8151L304.82 83.6459L305.023 83.5782L305.396 83.1722L305.362 82.8676L305.091 82.6308L304.719 82.5969L304.516 82.7661C304.211 82.9353 304.008 83.1045 303.772 83.2399L303.433 83.409L303.196 83.5444L302.824 83.7474L302.689 83.8828L302.452 83.9843L302.283 84.1535H302.215L301.978 84.3227L301.91 84.3565L301.606 84.5257L300.794 84.9317L300.625 85.0671L300.083 85.3378L299.948 85.4731L299.643 85.6761L299.407 85.8115L298.967 86.0822L298.764 86.2175L298.561 86.2514L298.29 86.4206L297.85 86.6913L297.309 86.9958L297.038 87.1311L295.921 87.6725L295.651 87.7402L295.109 87.9432L294.297 88.1463L294.162 88.2478L293.62 88.5523C293.62 88.5523 293.553 88.5861 293.519 88.62L293.214 88.6877L292.91 88.7892C292.639 88.823 292.436 88.9245 292.199 88.9583H292.03L291.827 88.9245L291.624 88.9583L291.489 88.9922L291.252 88.9583H291.015V88.8568L291.083 88.4508V88.3154L291.252 87.6387L291.556 86.962L291.624 86.7928L291.827 86.2175C291.861 86.1499 291.861 86.116 291.996 85.9807L292.165 85.8115L292.538 85.1686L292.707 84.8979L292.944 84.5595L293.417 84.0181L293.925 83.4429C293.959 83.3752 294.026 83.2737 294.026 83.2399L294.365 83.0368C294.365 83.003 294.365 82.9353 294.399 82.8338L294.635 82.5969L294.872 82.2586L295.211 81.7849L295.854 81.142L295.955 80.9051L296.463 80.4652L296.936 80.093L297.342 79.6531L297.647 79.3147L297.715 78.841V78.6042C297.444 78.2658 297.173 78.232 296.936 78.1643C296.429 78.1643 295.921 78.435 295.718 78.638L295.346 78.9764L295.008 79.4501L294.568 80.1268L294.399 80.2622L294.263 80.5329L294.094 80.7697L293.654 81.3111L293.485 81.7172L292.944 82.4616L292.538 82.9353L292.436 83.1045L292.132 83.5444C292.03 83.6459 291.928 83.8489 291.827 83.9843L291.725 84.0858L291.59 84.3227L291.489 84.5595C291.421 84.6949 291.286 84.8302 291.218 84.9656L291.049 85.2363L290.744 85.507C290.744 85.507 290.71 85.5746 290.71 85.6085L290.473 85.8792L290.203 86.3529C290.203 86.4206 290.135 86.5221 290.135 86.5559L289.864 87.2327L289.628 87.9094V88.1124C289.526 88.417 289.492 88.8568 289.526 89.0937L289.492 89.3644L289.661 89.5674C289.898 89.9058 290.169 90.1088 290.507 90.2103L291.421 90.3795L291.827 90.278L292.301 90.3118L292.774 90.2442L293.248 90.0073L293.79 89.9058L294.026 89.8381L294.263 89.7366L294.737 89.4659C294.771 89.4659 294.906 89.3982 294.94 89.3644L295.211 89.2629L295.752 88.9245L295.887 88.823L296.53 88.5185L296.7 88.4508L297.038 88.2478C297.173 88.2139 297.342 88.1124 297.478 88.0786L297.579 88.0109L297.816 87.8417L298.087 87.774L298.561 87.571L298.967 87.2665L299.237 87.1311ZM302.215 70.4832C302.08 70.2125 301.843 69.9757 301.268 69.908L300.997 69.9757L300.591 70.1787L300.083 70.6862L299.88 70.8554L299.643 71.0246L299.339 71.363L299.203 71.5322L298.933 71.9044L298.459 72.615L298.324 72.8518L297.85 73.9685L297.816 74.1038L297.884 74.5437C298.121 74.5437 298.358 74.5437 298.527 74.4422L298.764 74.273L299.305 73.8331L299.914 73.2917C300.049 73.1564 300.32 72.9872 300.489 72.8518L301.031 72.4458C301.775 72.0397 302.08 71.6675 302.249 71.2953C302.317 70.9569 302.283 70.7539 302.249 70.5509L302.215 70.4832Z" fill="url(#paint8_linear_0_191)"/>
<path d="M313.125 85.507L312.854 85.8453L312.753 86.0145L312.448 86.4206V86.4882L312.279 86.8604C312.211 86.9958 312.245 87.1988 312.279 87.368V87.7064L312.584 88.0447L312.82 88.1124L312.99 88.1801L313.294 88.2139H313.734L314.242 88.0786C314.275 88.0786 314.411 87.9771 314.478 87.9432L314.851 87.8079L315.764 87.4695L316.035 87.3342L316.881 86.9958L317.016 86.9281L317.287 86.7589L317.795 86.5897L318.065 86.3867L318.201 86.3529L318.404 86.2852L319.148 86.0145L319.825 85.8115L320.4 85.5408L321.212 85.1686L321.415 85.1009L321.889 84.9656H322.092L322.498 84.7625L323.005 84.6272H323.378L323.716 84.3227V83.7474C323.682 83.7474 323.479 83.7136 323.378 83.6797C323.344 83.6459 323.141 83.6459 323.107 83.6459L322.43 83.8489L322.126 83.9166L320.468 84.3903L320.366 84.4918L320.062 84.5933L318.877 84.8979L318.742 84.9994L318.607 85.0332L318.302 85.1686L317.896 85.3039L317.592 85.3716L317.422 85.4393L316.238 85.7776L315.798 85.8792L315.595 85.9468L315.223 86.0145L314.783 86.116H314.648L314.309 86.1499C314.174 86.1499 314.106 86.1837 314.005 86.1837C314.005 86.1499 314.072 86.1499 314.106 86.0483L314.174 85.8792L314.275 85.6761L314.614 85.2024L314.682 85.1009L315.392 84.2888L315.663 84.052L315.967 83.6121L316.103 83.4767L316.407 83.2737L316.475 82.9353L316.61 82.7323L316.644 82.6308V82.4278C316.441 82.0894 316.238 81.954 316.069 81.8864L316.035 81.8525L315.697 81.6495L315.324 81.5818H314.851L313.802 81.8187L313.294 82.1232L312.888 82.3939L312.719 82.5293L312.448 82.6985L312.279 82.8338L311.738 83.1045L311.332 83.409L310.756 83.6797L310.621 83.7136L309.606 84.1873L309.369 84.3565L308.455 84.8302L308.219 84.9656L307.542 85.3039L307.339 85.3378L307.237 85.4393L306.933 85.6085L306.696 85.7776C306.121 86.116 306.121 86.0822 305.85 86.1837L305.647 86.2852L305.207 86.4206L304.903 86.5897L304.733 86.6913L303.549 87.2327L303.312 87.2665L302.805 87.4357L302.5 87.5033C302.263 87.571 302.128 87.7064 301.891 87.774V87.5372L301.925 87.4695L302.026 87.3342L302.196 87.1311L302.297 86.9281L302.5 86.4882L302.872 85.9807L303.008 85.8115L303.211 85.6085C303.211 85.6085 303.245 85.5408 303.245 85.507L303.312 85.4054L303.448 85.2363L303.651 84.9994V84.9656L304.057 84.5933L304.395 84.1873V84.1196L304.733 83.8489L304.801 83.7813L305.072 83.5444L305.309 83.409L305.613 83.1045L305.918 82.7661L306.019 82.6646L307.542 81.548L307.982 81.2435L308.151 81.142L309.031 80.6682L309.775 80.3637L310.35 80.1945L310.79 80.0592L310.993 79.9915L311.23 79.9576H312.55C312.617 79.9576 312.719 79.9238 312.787 79.9238C313.497 79.9915 313.971 79.3824 314.072 79.1117L314.14 78.8072L314.106 78.4688L313.734 78.1643C313.7 78.1643 313.599 78.1304 313.565 78.0966L312.82 77.9951H312.313L312.076 78.0628L311.873 78.1304L311.535 78.1643L311.399 78.2658C311.196 78.2996 311.027 78.4011 310.824 78.435L310.621 78.5026L310.317 78.638L309.098 79.2471C308.76 79.3486 308.658 79.4501 308.557 79.4839L308.455 79.5178L308.151 79.6531L308.117 79.6869L307.61 79.9576L307.373 80.1607L306.797 80.6344L306.121 81.2435L305.85 81.4126L305.782 81.4465L305.376 81.7849L305.139 82.0217L304.666 82.3939L303.109 83.7813L302.737 84.1196L302.432 84.3565L302.297 84.5257L301.891 84.9317L301.553 85.3378L301.316 85.6761L301.045 86.0822C301.045 86.116 301.011 86.1499 301.011 86.1499L300.808 86.3867L300.639 86.8604C300.402 87.4357 300.233 88.0447 300.402 88.5185C300.605 89.0599 301.147 89.1952 301.823 89.1275L302.06 89.1614L302.263 89.1275L302.838 88.8907L303.075 88.8568L303.752 88.62C303.752 88.62 303.854 88.4846 303.921 88.4508C304.09 88.3831 304.158 88.417 304.226 88.3493L304.463 88.3831L304.869 88.2139H305.173L305.816 87.8756C306.053 87.7064 306.29 87.571 306.527 87.4357C306.561 87.4357 306.764 87.368 306.797 87.3342L307 87.2665L307.339 87.0296L307.542 86.8943C307.745 86.7928 307.948 86.6236 308.151 86.5221L308.286 86.4882L308.76 86.2175L308.794 86.1837L309.403 85.913L309.64 85.8115L310.52 85.3039L311.298 84.9317L311.535 84.7964L311.772 84.6949L312.042 84.5257L313.091 83.9166L313.43 83.8489L314.377 83.4767L314.783 83.3752H314.817L314.715 83.5106L314.377 83.8828H314.343L314.072 84.1873L313.802 84.5595L313.125 85.507Z" fill="url(#paint9_linear_0_191)"/>
<path d="M388.889 87.1311L389.025 87.0296L389.397 86.8943L389.532 86.8266L389.735 86.6236C390.311 86.2852 390.92 85.8453 391.529 85.4393L391.698 85.3716L391.935 85.3039L392.375 84.9317L392.679 84.7287L393.728 84.0858L394.27 83.8151L394.473 83.6459L394.676 83.5782L395.048 83.1722L395.014 82.8676L394.743 82.6308L394.371 82.5969L394.168 82.7661C393.864 82.9353 393.66 83.1045 393.424 83.2399L393.085 83.409L392.848 83.5444L392.476 83.7474L392.341 83.8828L392.104 83.9843L391.935 84.1535H391.867L391.63 84.3227L391.563 84.3565L391.258 84.5257L390.446 84.9317L390.277 85.0671L389.735 85.3378L389.6 85.4731L389.295 85.6761L389.059 85.8115L388.619 86.0822L388.416 86.2175L388.213 86.2514L387.942 86.4206L387.502 86.6913L386.961 86.9958L386.69 87.1311L385.573 87.6725L385.303 87.7402L384.761 87.9432L383.949 88.1463L383.814 88.2478L383.272 88.5523C383.272 88.5523 383.205 88.5861 383.171 88.62L382.866 88.6877L382.562 88.7892C382.291 88.823 382.088 88.9245 381.851 88.9583H381.682L381.479 88.9245L381.276 88.9583L381.141 88.9922L380.904 88.9583H380.667V88.8568L380.735 88.4508V88.3154L380.904 87.6387L381.208 86.962L381.276 86.7928L381.479 86.2175C381.513 86.1499 381.513 86.116 381.648 85.9807L381.817 85.8115L382.19 85.1686L382.359 84.8979L382.596 84.5595L383.069 84.0181L383.577 83.4429C383.611 83.3752 383.678 83.2737 383.678 83.2399L384.017 83.0368C384.017 83.003 384.017 82.9353 384.051 82.8338L384.288 82.5969L384.524 82.2586L384.863 81.7849L385.506 81.142L385.607 80.9051L386.115 80.4652L386.589 80.093L386.995 79.6531L387.299 79.3147L387.367 78.841V78.6042C387.096 78.2658 386.825 78.232 386.589 78.1643C386.081 78.1643 385.573 78.435 385.37 78.638L384.998 78.9764L384.66 79.4501L384.22 80.1268L384.051 80.2622L383.915 80.5329L383.746 80.7697L383.306 81.3111L383.137 81.7172L382.596 82.4616L382.19 82.9353L382.088 83.1045L381.784 83.5444C381.682 83.6459 381.581 83.8489 381.479 83.9843L381.378 84.0858L381.242 84.3227L381.141 84.5595C381.073 84.6949 380.938 84.8302 380.87 84.9656L380.701 85.2363L380.396 85.507C380.396 85.507 380.362 85.5746 380.362 85.6085L380.126 85.8792L379.855 86.3529C379.855 86.4206 379.787 86.5221 379.787 86.5559L379.517 87.2327L379.28 87.9094V88.1124C379.178 88.417 379.144 88.8568 379.178 89.0937L379.144 89.3644L379.314 89.5674C379.55 89.9058 379.821 90.1088 380.159 90.2103L381.073 90.3795L381.479 90.278L381.953 90.3118L382.427 90.2442L382.9 90.0073L383.442 89.9058L383.678 89.8381L383.915 89.7366L384.389 89.4659C384.423 89.4659 384.558 89.3982 384.592 89.3644L384.863 89.2629L385.404 88.9245L385.54 88.823L386.182 88.5185L386.352 88.4508L386.69 88.2478C386.825 88.2139 386.995 88.1124 387.13 88.0786L387.231 88.0109L387.468 87.8417L387.739 87.774L388.213 87.571L388.619 87.2665L388.889 87.1311ZM391.867 70.4832C391.732 70.2125 391.495 69.9757 390.92 69.908L390.649 69.9757L390.243 70.1787L389.735 70.6862L389.532 70.8554L389.295 71.0246L388.991 71.363L388.856 71.5322L388.585 71.9044L388.111 72.615L387.976 72.8518L387.502 73.9685L387.468 74.1038L387.536 74.5437C387.773 74.5437 388.01 74.5437 388.179 74.4422L388.416 74.273L388.957 73.8331L389.566 73.2917C389.702 73.1564 389.972 72.9872 390.141 72.8518L390.683 72.4458C391.427 72.0397 391.732 71.6675 391.901 71.2953C391.969 70.9569 391.935 70.7539 391.901 70.5509L391.867 70.4832Z" fill="url(#paint10_linear_0_191)"/>
<path d="M392.592 84.864L392.085 85.6423L392.017 85.7776L391.712 86.1837L391.509 86.5559L390.799 87.5033L390.562 87.8756C390.122 88.417 390.088 88.8568 390.122 89.1275C390.223 89.4321 390.359 89.7366 390.765 89.8381L391.069 89.8043L391.712 89.3644L391.915 89.1614L392.93 88.1124L393.54 87.4695L393.946 87.165L394.385 86.6574L394.487 86.5559L394.656 86.4206L394.927 86.2514L394.995 86.2175L395.468 85.7776L395.57 85.6761L395.84 85.507L396.145 85.3039C396.28 85.2024 396.551 84.8979 396.686 84.7625L397.092 84.4918L397.431 84.1873L397.769 83.8489L397.938 83.7813L398.412 83.4429L398.717 83.3075L399.055 83.1383L399.292 83.003C399.393 82.9692 399.427 82.9015 399.427 82.9015C399.529 82.8676 399.698 82.8338 399.799 82.8338C400.002 82.9015 400.07 83.1722 400.036 83.5106C400.036 83.5782 400.002 83.7136 400.002 83.7813L399.461 85.6761L399.326 86.0822V86.4882C399.326 86.7251 399.326 86.9281 399.36 87.0973C399.461 87.5033 399.732 87.8756 400.07 88.0447L400.205 88.1124H400.239C400.544 88.2478 400.882 88.3831 401.254 88.3831L401.593 88.417L401.796 88.3493L402.202 88.3831L402.574 88.3493L402.912 88.2478L403.217 88.1801C403.42 88.1801 403.555 88.1463 403.623 88.1124L403.725 88.0786L403.86 88.0447L403.995 87.9771L404.232 87.9432L404.638 87.8756L405.01 87.8079L405.315 87.6725C405.45 87.6049 405.619 87.4695 405.755 87.4357L406.228 87.3003L406.702 87.0296C406.804 86.9281 407.007 86.8266 407.142 86.7251H407.21L408.699 85.9807L409.24 85.6761C409.714 85.4393 410.086 85.2701 410.357 85.1009L410.763 84.8979L411.27 84.5595L411.609 84.4242L412.116 84.052C412.455 83.8828 412.793 83.6797 413.199 83.3752L413.808 82.9692L414.146 82.7323L414.214 82.3601L414.113 82.1909L413.91 82.0217H413.537L413.097 82.3263L412.928 82.3939L412.488 82.6646L412.285 82.8L411.135 83.4767L410.187 83.9166L409.883 84.0858L409.612 84.3227L409.375 84.4918L408.631 84.864L408.462 84.8979L408.022 85.2024L406.871 85.7438L406.296 85.9468H406.195L404.672 86.5559L404.401 86.5897C404.3 86.6236 404.097 86.7251 403.961 86.7589L403.725 86.7928L403.115 87.0635C402.54 87.165 402.1 87.1988 401.694 87.165L401.39 87.0296C401.356 87.0296 401.39 87.0296 401.356 86.9958L401.221 86.7589L401.187 86.5897C401.153 86.5559 401.085 86.3529 401.051 86.2514L401.018 86.0822L400.95 85.8115C400.95 85.71 400.984 85.6423 400.984 85.5408L401.187 84.6949V84.3565L401.221 84.1196L401.288 83.7136L401.322 83.3752V83.0707L401.221 82.4954L400.916 82.0556L400.442 81.7172L399.698 81.6833H399.563C399.326 81.6495 398.75 81.8864 398.48 81.9879C398.378 82.0217 398.277 82.1232 398.175 82.1571L397.634 82.4616L397.498 82.4954L396.619 83.0707L396.517 83.1383L396.01 83.5106L395.874 83.6459L395.333 84.0181L395.265 84.1535L395.164 84.2888L393.844 85.507L393.776 85.5408L394.047 85.1347C394.115 85.0332 394.216 84.6949 394.284 84.5257L394.825 83.7474C394.995 83.4767 395.265 83.0368 395.468 82.7661L395.671 82.5631L395.739 82.3263L396.213 81.7172L396.382 81.3788L396.551 81.0066L396.889 80.499L397.532 79.1117C397.735 78.7057 397.938 78.3335 398.074 77.8597C398.311 77.0138 397.972 76.4724 397.092 76.4724C396.72 76.4724 396.28 76.777 396.179 77.0815C396.111 77.2845 396.111 77.4537 396.111 77.7244C396.111 77.8936 396.145 78.1304 396.077 78.435C395.976 78.841 395.84 79.2809 395.773 79.4501L395.13 80.6682L394.656 81.6157L394.555 81.751L394.385 82.0217L393.607 83.3075L393.235 83.8489L392.761 84.661C392.761 84.6949 392.727 84.7287 392.727 84.7287L392.592 84.864Z" fill="url(#paint11_linear_0_191)"/>
<path d="M413.551 83.7474L413.822 83.4767L414.16 83.2399L414.566 82.9353L414.972 82.6985L415.209 82.5631L415.446 82.2924L415.717 82.1232L415.818 82.0894L416.529 81.751L417.205 81.3788L417.916 81.0743H418.085C418.288 80.9389 418.66 80.7697 418.897 80.6344L419.1 80.6006L419.54 80.3637L419.845 80.296L420.894 79.8223L421.367 79.6531L422.213 79.5516H422.856C423.228 79.5516 423.431 79.6193 423.736 79.3486C424.074 79.044 424.244 78.5703 423.905 78.0289C423.736 77.6906 423.499 77.589 423.364 77.589H423.093C422.822 77.589 422.518 77.5552 422.01 77.6567L421.841 77.6906L421.604 77.7244L420.86 77.9951L419.675 78.638L419.506 78.7395L419.134 78.9425L418.187 79.3824L417.273 79.8561L417.002 80.0253L416.258 80.3975L416.021 80.6006L414.397 81.5818L414.262 81.6833L414.025 81.7172L413.754 81.9879C413.652 82.0894 413.551 82.1571 413.416 82.2247H413.314L413.01 82.5293C412.874 82.6308 412.536 82.8676 412.57 82.8338L412.164 83.1383L411.893 83.206L411.622 83.4429C411.588 83.4767 411.555 83.5444 411.555 83.5782L411.318 83.6797L411.047 83.9504L410.945 83.9843L410.641 84.4242L410.303 84.7625V84.7964L410.066 85.0671L409.66 85.4393L409.423 85.71L409.287 85.9468L409.084 86.3529L408.915 86.8943V87.2327C408.881 87.368 408.881 87.4695 408.881 87.6725L408.915 87.8756L408.949 88.1463L409.254 88.7215L409.998 89.0599C410.032 89.0599 410.1 89.0937 410.167 89.1275L410.607 89.2967L411.182 89.3644L411.385 89.3306H411.622L412.434 89.2629L413.077 89.0937L414.126 88.6538L414.938 88.3493C415.31 88.2478 415.683 88.0786 416.055 87.9771L417.578 87.5033L418.627 87.0635L418.931 86.962L419.236 86.8266L420.318 86.4544L420.691 86.319L420.792 86.2852L420.961 86.2514L421.164 86.2175L421.537 86.0822L421.706 85.9468L421.841 85.913L422.281 85.7776L423.262 85.3039L424.311 84.9317L424.616 84.8302H424.751L425.123 84.661L425.665 84.4918L425.969 84.3227C426.646 84.052 427.39 83.7474 428.71 82.9353L428.981 82.8338L429.522 82.3939L429.691 82.0556L429.657 81.8187L429.454 81.5818H429.15L428.947 81.6157L428.812 81.751L428.338 81.9879C427.932 82.1909 427.56 82.4278 427.187 82.5969L425.834 83.1383L425.225 83.3752L424.311 83.7813L423.431 84.0858L423.059 84.1873L422.755 84.255L421.807 84.5933L421.638 84.6272L421.435 84.6949L420.183 85.1347L419.269 85.4054C418.863 85.5408 418.424 85.6761 417.984 85.8453L417.341 86.0145L417.138 86.1837L416.935 86.2514L416.123 86.4206L415.886 86.5897L415.683 86.6913L415.344 86.8266L414.837 86.9958H414.735L413.788 87.2327L413.449 87.3342L413.179 87.368L412.705 87.5033H412.265L411.927 87.5372L411.487 87.6725C411.385 87.6725 411.284 87.7064 411.182 87.7064C410.979 87.7402 410.709 87.7402 410.573 87.7064L410.336 87.6049L410.235 87.571L410.133 87.4357C410.133 87.368 410.167 87.2326 410.167 87.1311L410.269 86.962L410.438 86.7589L410.607 86.4206L411.182 85.8115L411.825 85.2363L412.028 84.9317L412.197 84.7964L412.671 84.4242L413.416 83.8151L413.551 83.7474Z" fill="url(#paint12_linear_0_191)"/>
<path d="M439.687 85.6085L440.093 84.6272C440.195 84.3565 440.33 84.1196 440.499 83.7136C440.567 83.5782 440.601 83.4767 440.635 83.3414C440.736 83.0368 440.939 82.6985 441.075 82.2924C441.345 81.5142 441.548 80.9389 440.601 80.4652C439.958 80.1945 439.247 80.1607 438.672 80.3299H438.537L437.691 80.5667L437.386 80.7359L436.507 81.3111L435.898 81.7172L435.627 81.8864C435.424 81.9879 435.255 82.1571 434.95 82.3601H434.882L434.24 82.7323L433.394 83.3075L432.378 84.1535L432.412 84.1196C432.243 84.2211 432.074 84.3903 431.905 84.4918L431.837 84.5257L431.533 84.8302L431.397 84.9317L431.16 85.1009L430.179 85.71L429.875 85.9468L429.773 85.9807L429.232 86.3529L429.029 86.5221L428.859 86.7251L428.521 86.962L428.284 87.165L427.946 87.368H427.844C427.844 87.1988 427.912 87.0973 427.912 86.962L428.352 85.8453C428.42 85.6423 428.386 85.8115 428.453 85.6085L428.927 84.5257L429.029 84.1196L429.435 83.3075C429.502 83.1045 429.604 83.003 429.638 82.8338L429.739 82.5969C430.145 81.9202 430.416 81.4126 430.72 81.0066L430.856 80.8374L430.957 80.6344C431.262 80.1945 431.6 79.7208 431.905 79.2471C432.378 78.5365 432.92 77.6567 433.427 76.9461L433.766 76.6416L434.07 76.134L434.578 75.3896C434.578 75.3558 434.578 75.3219 434.612 75.2543L434.882 74.8821L435.39 74.3745L435.695 73.9685L436.236 73.1902C436.337 73.0887 436.439 72.8518 436.54 72.7165L436.71 72.4796L436.946 72.2766L437.082 72.0397L437.353 71.5999L437.657 71.2276L438.977 69.4004L439.247 69.1297L439.62 68.453L439.789 68.1823L440.093 67.7086L441.515 65.8814L441.988 65.2046L442.462 64.6971L443.071 63.9188L443.883 62.7683C444.052 62.4976 443.849 61.5164 443.409 61.4149C443.173 61.3472 442.8 61.4825 442.36 61.8886L441.548 62.7683L441.108 63.2759L440.432 64.1895C440.432 64.2233 440.364 64.3249 440.364 64.3249L440.229 64.6294L440.06 64.9339L439.653 65.4415C439.653 65.4753 439.653 65.4753 439.62 65.543L439.552 65.6107C439.349 65.949 439.044 66.2874 438.841 66.6258L437.962 67.9454L437.623 68.5545L437.082 69.4343L436.845 69.7388C436.811 69.8403 436.71 69.9418 436.676 70.0433L436.27 70.6862L436.168 70.8554L435.999 71.0923L435.559 71.769L435.458 71.9382L435.221 72.3443L435.018 72.615L434.916 72.818C434.916 72.8518 434.916 72.8857 434.882 72.9533L434.815 73.021C434.206 73.8331 433.529 74.7806 432.954 75.5926L432.683 75.7618L432.074 76.8785C431.702 77.386 431.6 77.5214 431.533 77.6567L431.16 78.0628L430.957 78.4011L430.856 78.638L430.619 79.0102L430.484 79.1456L430.382 79.3486L429.908 80.093L429.773 80.2622L429.435 80.7359L429.13 81.1758L428.893 81.6833L428.419 82.4278L428.149 82.8338L427.675 83.6121L427.574 83.8489C427.472 84.1196 427.269 84.5257 427.134 84.7964L426.998 85.0332L426.761 85.5746L426.457 86.2514L426.288 86.5559L426.051 87.1988C426.051 87.2327 425.983 87.4018 425.983 87.4695L425.814 87.9771L425.746 88.4846L425.814 88.8907L426.186 89.2629L426.491 89.2967L426.931 89.2629L427.303 89.1614H427.269L427.675 89.026L428.149 88.7215L428.623 88.4846L429.062 88.2478L429.299 88.1124L429.502 88.0109L430.281 87.4357L431.228 86.6574L432.954 85.2024L433.63 84.661L433.969 84.458L435.695 83.4429L435.83 83.3075L436.236 83.0707L436.337 83.0368L437.048 82.6985L437.285 82.4954L437.556 82.3601L437.589 82.3263L437.928 82.0556C437.995 81.9879 438.097 81.954 438.198 81.8864L438.368 81.8525L438.977 81.548C439.247 81.4126 439.383 81.3788 439.586 81.3788V81.4803C439.62 81.8525 439.45 82.1571 439.214 82.5293L439.078 83.1045L438.841 83.7474C438.706 84.052 438.571 84.458 438.503 84.7287L438.266 85.1347L438.097 85.5746L438.029 85.7438L437.86 86.0483C437.86 86.0822 437.657 86.2852 437.657 86.319L437.42 86.9281L437.386 87.2327L437.353 87.8417L437.319 88.5523L437.488 88.8907L437.725 89.0937C437.792 89.0937 437.792 89.1614 437.826 89.229L438.131 89.4997C438.198 89.4997 438.3 89.4659 438.368 89.4659C438.503 89.4997 438.571 89.4997 438.706 89.4997L438.977 89.4321L439.146 89.3644L439.484 89.3306L439.789 89.2629L440.093 89.1275L440.33 88.9922L440.601 88.7892L440.669 88.7553L441.278 88.3154L441.548 88.1801L441.887 88.0447L442.09 87.9771L442.293 87.774L442.631 87.571L442.699 87.5033C442.766 87.4695 442.834 87.368 442.902 87.3342L442.97 87.3003L443.24 87.1311L443.409 86.8943L443.579 86.7251L443.68 86.6574L444.018 86.4206C444.628 86.0145 445.135 85.6423 445.372 85.4054L445.744 85.1009L445.88 84.9656L446.286 84.7287C446.387 84.6949 446.489 84.5933 446.59 84.5595L446.895 84.4918L446.962 84.255L446.895 83.9504L446.759 83.7136L446.556 83.5782L446.252 83.6459L445.744 83.9843L445.406 84.2888L445.067 84.5257L444.966 84.5933C444.797 84.6949 444.628 84.864 444.458 84.9656L444.086 85.1686L443.883 85.3378L443.714 85.4393L443.003 85.913C442.97 85.9468 442.936 85.9468 442.936 85.9468L441.616 86.8266L441.413 86.8604L440.127 87.5372L440.026 87.571L439.687 87.7064C439.62 87.7402 439.518 87.7402 439.45 87.7402L439.315 87.6725L439.18 87.5033L439.146 87.368C439.146 87.2665 439.146 87.165 439.18 87.0296L439.247 86.7251L439.417 86.3529L439.484 86.0483L439.687 85.6085Z" fill="url(#paint13_linear_0_191)"/>
<path d="M446.859 85.1686L447.231 84.7964L447.468 84.458C447.536 84.3903 447.603 84.2211 447.671 84.1535L447.908 83.9166L448.246 83.5444L448.686 83.0707L449.058 82.7323L449.295 82.4954L449.803 82.0217C449.836 81.9879 449.938 81.8864 449.972 81.8187C450.039 81.751 450.107 81.751 450.175 81.6833L450.716 81.2773L450.818 81.2435L451.359 80.9389L451.799 80.5667L452.408 80.1945L452.543 80.1268L453.288 79.7885L453.356 79.7208L453.762 79.5178L453.998 79.4163C454.506 79.1456 455.284 78.8072 456.029 78.638L456.232 78.6042L456.469 78.5703H456.841C456.875 78.5703 456.908 78.6042 456.976 78.638L457.247 78.8072C457.247 78.841 457.281 78.841 457.315 78.8749L457.145 79.3486L457.078 79.5178C457.078 79.5854 457.078 79.5854 457.044 79.6531C457.01 79.7208 456.875 79.8561 456.841 79.89L455.453 80.9728L455.115 81.2435L454.878 81.3788C454.54 81.548 454.066 81.8525 453.728 82.0217L453.017 82.3263L452.273 82.7323L451.528 82.9692L451.19 83.1045L450.852 83.206L450.479 83.3075C450.141 83.3414 449.701 83.4429 449.363 83.4767C449.329 83.4767 449.261 83.5444 449.227 83.5444C448.686 83.7474 448.381 83.8828 447.84 84.5257L447.806 84.7964L447.84 85.1347L448.28 85.3378H448.584L449.16 85.3039L450.175 85.1347L450.784 84.8979L451.698 84.4918L452.137 84.1873L453.119 83.7136L453.288 83.6121C454.066 83.206 454.811 82.7661 455.623 82.2247L455.826 82.1909L456.029 82.0217L457.078 81.3788L457.484 81.1081L457.822 80.8036L458.228 80.499L458.668 79.9915L458.803 79.5516L458.905 79.2132L458.939 78.841L458.905 78.7057L458.837 78.3335C458.77 78.0628 458.6 77.9274 458.397 77.7582L458.025 77.5552C457.957 77.5214 457.856 77.4537 457.653 77.386C457.518 77.386 457.315 77.3522 457.179 77.3522H456.672C456.57 77.3522 456.469 77.386 456.367 77.386H456.029L455.284 77.5552C455.047 77.6229 454.811 77.7582 454.269 77.9274L453.829 77.9951L453.66 78.0289L453.356 78.1981L452.476 78.638L452.07 78.9425C451.258 79.4163 450.513 79.9915 449.803 80.499L449.667 80.6006L449.6 80.6344L449.092 80.9051L448.821 81.0743L448.551 81.3111C448.517 81.3788 448.415 81.4465 448.381 81.5142L448.314 81.5818L447.84 82.0217L447.536 82.2924L447.13 82.6646L446.656 83.003L446.047 83.7136L445.607 84.2211L445.235 84.8302C445.167 85.0332 445.065 85.1347 444.998 85.3378L444.761 85.7776L444.524 86.6236V86.9281L444.49 87.1988L444.524 87.7064L444.626 88.1801L444.795 88.62L445.268 89.2967L446.114 89.7028L446.96 89.8381L447.603 89.7704L448.246 89.6351L448.449 89.6013L449.024 89.4321C449.329 89.3644 449.566 89.3306 449.701 89.2629L449.904 89.1952L450.479 89.0937L451.055 88.8907L451.596 88.7215L452.273 88.5861L453.356 88.0447C453.525 87.9771 453.694 87.8417 453.863 87.774C454.303 87.6049 454.777 87.4357 455.183 87.2665L455.487 87.1311L455.792 87.0635L456.638 86.7251L458.194 85.9807L458.296 85.8792C458.566 85.7776 458.837 85.6085 459.108 85.4731L459.514 85.2701L460.8 84.6949C460.935 84.5933 461.172 84.4918 461.24 84.458L461.578 84.2888C461.578 84.2888 461.713 84.1873 461.781 84.1535L462.661 83.7136H462.728L462.931 83.6459L463.101 83.5106L463.338 83.3752L463.608 83.206L464.319 82.8L464.386 82.7661L464.826 82.4616L465.537 82.0217L465.74 81.8864L466.011 81.751C466.248 81.6157 466.484 81.2435 466.383 81.0404C466.281 80.8036 466.011 80.8036 465.808 80.8036C465.571 80.8374 465.469 80.8713 465.334 80.9728C465.199 81.0404 465.165 81.0404 464.928 81.2096L464.251 81.5818L462.695 82.5293L462.492 82.6985L461.476 83.1722L460.969 83.3414L460.631 83.5106L460.495 83.5444L460.021 83.7813L458.668 84.4242C458.194 84.6272 457.687 84.8979 457.078 85.1686L456.976 85.2024L455.826 85.6085L455.453 85.6761L455.081 85.8453L453.085 86.6913L452.882 86.7251L452.577 86.8943L451.359 87.3003L450.784 87.5372L448.415 88.0786L447.908 88.1463H447.468L446.994 88.0109C446.487 87.9094 446.317 87.8756 446.25 87.774C446.148 87.571 446.148 87.3342 446.182 87.2327C446.182 87.0296 446.216 86.5559 446.216 86.319L446.554 85.6423C446.554 85.6085 446.554 85.6085 446.588 85.6085L446.859 85.1686Z" fill="url(#paint14_linear_0_191)"/>
<path d="M462.355 84.864L461.847 85.6423L461.78 85.7776L461.475 86.1837L461.272 86.5559L460.562 87.5033L460.325 87.8756C459.885 88.417 459.851 88.8568 459.885 89.1275C459.986 89.4321 460.122 89.7366 460.528 89.8381L460.832 89.8043L461.475 89.3644L461.678 89.1614L462.693 88.1124L463.302 87.4695L463.708 87.165L464.148 86.6574L464.25 86.5559L464.419 86.4206L464.69 86.2514L464.757 86.2175L465.231 85.7776L465.333 85.6761L465.603 85.507L465.908 85.3039C466.043 85.2024 466.314 84.8979 466.449 84.7625L466.855 84.4918L467.194 84.1873L467.532 83.8489L467.701 83.7813L468.175 83.4429L468.479 83.3075L468.818 83.1383L469.055 83.003C469.156 82.9692 469.19 82.9015 469.19 82.9015C469.292 82.8676 469.461 82.8338 469.562 82.8338C469.765 82.9015 469.833 83.1722 469.799 83.5106C469.799 83.5782 469.765 83.7136 469.765 83.7813L469.224 85.6761L469.089 86.0822V86.4882C469.089 86.7251 469.089 86.9281 469.122 87.0973C469.224 87.5033 469.495 87.8756 469.833 88.0447L469.968 88.1124H470.002C470.307 88.2478 470.645 88.3831 471.017 88.3831L471.356 88.417L471.559 88.3493L471.965 88.3831L472.337 88.3493L472.675 88.2478L472.98 88.1801C473.183 88.1801 473.318 88.1463 473.386 88.1124L473.487 88.0786L473.623 88.0447L473.758 87.9771L473.995 87.9432L474.401 87.8756L474.773 87.8079L475.078 87.6725C475.213 87.6049 475.382 87.4695 475.518 87.4357L475.991 87.3003L476.465 87.0296C476.567 86.9281 476.77 86.8266 476.905 86.7251H476.973L478.461 85.9807L479.003 85.6761C479.477 85.4393 479.849 85.2701 480.119 85.1009L480.526 84.8979L481.033 84.5595L481.371 84.4242L481.879 84.052C482.217 83.8828 482.556 83.6797 482.962 83.3752L483.571 82.9692L483.909 82.7323L483.977 82.3601L483.875 82.1909L483.672 82.0217H483.3L482.86 82.3263L482.691 82.3939L482.251 82.6646L482.048 82.8L480.898 83.4767L479.95 83.9166L479.646 84.0858L479.375 84.3227L479.138 84.4918L478.394 84.864L478.225 84.8979L477.785 85.2024L476.634 85.7438L476.059 85.9468H475.957L474.435 86.5559L474.164 86.5897C474.063 86.6236 473.86 86.7251 473.724 86.7589L473.487 86.7928L472.878 87.0635C472.303 87.165 471.863 87.1988 471.457 87.165L471.153 87.0296C471.119 87.0296 471.153 87.0296 471.119 86.9958L470.983 86.7589L470.95 86.5897C470.916 86.5559 470.848 86.3529 470.814 86.2514L470.78 86.0822L470.713 85.8115C470.713 85.71 470.747 85.6423 470.747 85.5408L470.95 84.6949V84.3565L470.983 84.1196L471.051 83.7136L471.085 83.3752V83.0707L470.983 82.4954L470.679 82.0556L470.205 81.7172L469.461 81.6833H469.325C469.089 81.6495 468.513 81.8864 468.243 81.9879C468.141 82.0217 468.04 82.1232 467.938 82.1571L467.397 82.4616L467.261 82.4954L466.382 83.0707L466.28 83.1383L465.772 83.5106L465.637 83.6459L465.096 84.0181L465.028 84.1535L464.927 84.2888L463.607 85.507L463.539 85.5408L463.81 85.1347C463.878 85.0332 463.979 84.6949 464.047 84.5257L464.588 83.7474C464.757 83.4767 465.028 83.0368 465.231 82.7661L465.434 82.5631L465.502 82.3263L465.976 81.7172L466.145 81.3788L466.314 81.0066L466.652 80.499L467.295 79.1117C467.498 78.7057 467.701 78.3335 467.837 77.8597C468.073 77.0138 467.735 76.4724 466.855 76.4724C466.483 76.4724 466.043 76.777 465.942 77.0815C465.874 77.2845 465.874 77.4537 465.874 77.7244C465.874 77.8936 465.908 78.1304 465.84 78.435C465.739 78.841 465.603 79.2809 465.536 79.4501L464.893 80.6682L464.419 81.6157L464.318 81.751L464.148 82.0217L463.37 83.3075L462.998 83.8489L462.524 84.661C462.524 84.6949 462.49 84.7287 462.49 84.7287L462.355 84.864Z" fill="url(#paint15_linear_0_191)"/>
<path d="M492.416 72.5135L492.619 72.3104L492.924 71.9044L493.093 71.7352L493.228 71.566L493.6 71.1938V71.1261L493.905 70.8216L494.176 70.7539C494.176 70.7539 494.209 70.4832 494.243 70.3817L494.514 70.111L494.649 69.9418L494.852 69.7388L495.055 69.5019L495.157 69.2651L495.664 68.5883C495.698 68.5545 495.732 68.453 495.732 68.4192L495.867 68.2838L496.104 67.9793L496.443 67.5056C496.51 67.4379 496.612 67.2349 496.679 67.1333L496.95 66.6935L497.119 66.5243L497.322 66.1182L497.458 65.949L497.864 65.5768L498.507 64.7309C498.845 64.2572 498.947 63.8173 499.048 63.3774L499.116 62.9714C499.116 62.7345 498.98 62.5992 498.744 62.3623C498.236 62.2608 497.83 62.3961 497.593 62.6668L496.883 63.6481L496.646 64.2233L496.24 65.0354V65.1031L496.172 65.1708L496.003 65.4076L495.698 66.0167L495.495 66.3551L494.954 67.201L494.006 68.3176L493.702 68.8252L493.397 69.0959C493.059 69.6035 492.653 70.111 492.314 70.6186L491.333 71.769C491.198 71.9044 491.029 72.1751 490.893 72.3443L490.25 73.1225L489.844 73.5624L488.931 74.6114L488.897 74.679L488.491 75.0512L487.239 76.3709L486.325 77.4199L485.073 78.7395L483.855 80.2622L483.686 80.1268L483.449 80.093H483.212L482.908 80.1268L482.502 80.6006L482.4 80.9389L482.468 81.3788L482.671 81.6495C482.671 81.6833 482.671 81.6495 482.705 81.6833L482.671 81.751L482.502 82.0217L482.333 82.2247L482.129 82.2586C482.096 82.3601 481.96 82.6308 481.926 82.7661L481.893 82.8L481.453 83.3075L481.182 83.6797L480.911 84.0181L480.573 84.4242L479.862 85.3716L479.659 85.71L479.321 86.3529L479.05 86.9281L478.949 87.165L478.881 87.4695L478.813 87.6049L478.746 87.9771L478.813 88.2816L479.152 88.62L479.456 88.6877L479.659 88.7215L479.964 88.6877L480.201 88.5523L480.641 88.2139L480.911 87.9771L481.284 87.571L482.637 86.5221L483.381 86.0483L483.788 85.8115L484.261 85.4054L484.938 84.9994L485.209 84.7625L485.581 84.4918L485.919 84.1535L486.156 83.9843L486.393 84.2211L486.799 84.5933L487.171 84.864L488.22 85.913L489.066 86.8266L489.438 87.165L490.014 87.8079C490.047 87.8417 490.149 87.9432 490.217 87.9771L490.69 88.5523C490.724 88.5523 490.893 88.6538 490.927 88.6877L491.57 89.4321L491.773 89.7366L492.01 90.1088L492.416 90.3795L492.754 90.684L493.465 91.53L493.736 91.8684L494.209 92.2744H494.277L494.379 92.5113L494.649 92.782H494.954L495.394 92.7143L495.495 92.4436L495.394 91.9699C495.36 91.9699 495.157 91.8345 495.055 91.7668L494.142 90.7179L493.905 90.4472L493.634 90.1427L493.499 90.0073L493.194 89.7366C493.16 89.7366 493.127 89.6689 493.093 89.6351L492.924 89.3982C492.89 89.3982 492.822 89.3644 492.788 89.3306L492.721 89.1952L492.551 88.9583L492.45 88.823L491.841 88.1463L491.773 88.0786L491.705 87.9094L491.198 87.3003C491.198 87.3003 491.13 87.2665 491.096 87.2665L490.859 86.9958L490.69 86.8943L489.134 85.1009C489.134 85.1009 489.032 85.0671 488.998 85.0671L488.322 84.3565L488.051 84.1196L487.645 83.7474L487.543 83.6459L487.205 83.2737L487.307 83.2399C487.374 83.1722 487.611 82.9353 487.713 82.8L488.322 82.2924C488.592 82.0556 488.863 81.8525 489.134 81.6495L489.371 81.4803L489.912 81.0404L490.217 80.8036C490.724 80.4652 491.266 80.2283 491.773 79.9915L492.111 79.8561L493.059 79.4501L493.16 79.4163L493.499 79.2809L493.871 79.2471L494.142 79.1456L494.649 79.0779L495.394 79.044L495.698 79.0102L496.037 79.044L496.24 79.0779L496.646 79.3824L496.95 79.6869L497.221 79.9238L497.458 79.9915L497.661 80.0253L497.931 79.8561L498.27 79.5178L498.405 79.2132L498.304 78.7057L497.999 78.4011L497.864 78.1643L497.356 77.8259L497.221 77.7244L496.916 77.589L496.612 77.5214L496.273 77.4875L495.867 77.5552C495.664 77.5552 495.461 77.5552 495.326 77.589C495.258 77.589 495.258 77.6229 495.191 77.6229L494.379 77.7582L493.634 77.9613L493.431 78.0289L493.127 78.0966C492.822 78.1981 492.518 78.3673 492.213 78.4688L492.01 78.5365L491.266 79.0102L491.198 79.044L491.029 79.0779L490.555 79.3486L489.98 79.6531L489.574 79.9238L489.303 80.1607L488.525 80.7359L488.322 80.8374L488.119 80.9728L487.916 81.142C487.746 81.2096 487.679 81.3111 487.611 81.345L487.577 81.3788L487.07 81.6157L486.63 81.954L486.325 82.2586L486.088 82.0217L485.919 81.8864L485.75 81.7172L485.716 81.4803L485.276 81.0404L485.107 80.9389L485.209 80.8036L485.581 80.4314L485.919 80.0592C486.224 79.7208 486.63 79.3824 486.934 79.044L487.205 78.6718L487.679 78.1981L487.78 77.9951L488.017 77.7244L488.322 77.3183V77.2845L488.491 77.1153L488.592 76.9461L488.762 76.8108L489.1 76.4724L489.946 75.525C489.98 75.4911 490.047 75.3219 490.081 75.2204L490.758 74.5099V74.4422L490.961 74.2053L491.096 74.07L492.416 72.5135ZM482.197 85.3039L481.893 85.5408L481.994 85.3378C482.129 85.0671 482.4 84.6949 482.569 84.4242L483.009 83.9166L483.517 83.3075L483.923 82.7323L484.16 82.4616C484.464 82.4954 484.498 82.5293 484.532 82.5293L484.633 82.6308L484.938 82.8338C484.972 82.9015 485.175 82.9692 485.276 83.0368L484.194 83.7813L484.092 83.8828L483.584 84.2211L483.348 84.458L483.043 84.6949L482.874 84.7964L482.569 85.0671L482.197 85.3039Z" fill="url(#paint16_linear_0_191)"/>
<path d="M508.583 82.5969L508.616 81.9202L508.447 81.5142L508.312 81.2096L507.771 80.6344L507.5 80.4652L507.432 80.4314L507.263 80.296L507.5 80.1945L508.447 80.0592L509.124 79.9576L509.767 79.9915L509.902 79.89L510.173 79.8223C511.222 79.6531 512.271 79.5178 513.76 79.4163C513.929 79.4163 514.064 79.4163 514.166 79.3824C514.301 79.3486 514.436 79.3147 514.606 79.3147L515.012 79.2809H515.519C516.027 79.2809 516.94 79.2809 517.685 79.4501L518.192 79.5854L518.429 79.7546L518.7 79.89V79.9915L518.565 80.4314L518.328 80.8374L518.192 81.1081L518.125 81.345L518.091 81.5142L518.125 81.9202L518.328 81.954L518.734 81.8525L518.937 81.6495C519.038 81.548 519.106 81.4803 519.241 81.2435L519.546 80.7697L519.715 80.4314L519.783 80.093L519.749 79.6869L519.614 79.4163L519.174 78.9764C519.14 78.9764 519.106 78.9764 519.038 78.9425C518.971 78.8749 518.971 78.8072 518.666 78.7395H518.7L518.395 78.5703H518.26L518.192 78.5365C517.753 78.4011 517.414 78.2996 517.143 78.2658L516.974 78.2319L516.704 78.1981H516.602L516.365 78.1304L516.027 78.1643L515.655 78.1304H515.418L515.215 78.1643H515.012L514.876 78.1304L514.673 78.1981C514.572 78.1981 514.47 78.2319 514.369 78.2319H514.03C513.895 78.2658 513.76 78.2658 513.658 78.2658L513.218 78.2319L512.948 78.2658H512.271L511.933 78.2996L511.662 78.3335L511.12 78.5026L510.613 78.5365L510.207 78.638L509.395 78.7733C509.293 78.7057 509.124 78.6042 508.989 78.5703L508.82 78.5026H508.616C508.38 78.4688 508.041 78.5026 507.838 78.5365L507.568 78.5703L507.263 78.6042L506.992 78.7395H506.958L506.688 78.8749L506.282 79.1456C506.248 79.1794 506.113 79.2132 506.045 79.2471L505.571 79.3147L505.436 79.2809L504.793 79.3824L504.285 79.3486H503.778C503.304 79.2809 502.898 79.2471 502.424 79.2471L501.849 79.1456L501.612 79.044L501.172 79.0779L500.766 79.1456L500.326 79.3147L499.988 79.89L499.954 80.296L500.225 80.6344L500.496 80.8036L500.902 80.9051L501.748 80.8713C502.052 80.8713 502.357 80.8374 502.593 80.8036C502.695 80.8036 502.763 80.7697 502.83 80.7697H503.338L503 80.9728L502.323 81.4465L501.883 81.7172L501.511 81.954L501.172 82.1909H501.071L500.834 82.4278L500.022 83.0368L499.853 83.1722L499.48 83.4767C499.413 83.5106 499.311 83.6121 499.277 83.6459L499.244 83.6797L498.499 84.2211L498.364 84.3565L498.025 84.6272L497.619 84.9994L496.401 86.2175L496.097 86.6574L495.86 87.0635L495.725 87.7402L495.758 88.0447L495.86 88.3154C495.928 88.5523 496.367 88.9245 496.706 89.0937L496.773 89.1275C497.146 89.2967 497.349 89.3306 497.518 89.3644C497.721 89.3982 497.992 89.4321 498.296 89.4321L498.939 89.4659H499.176L499.65 89.3982L499.853 89.3644L499.954 89.2629C500.293 89.1952 500.665 89.026 501.274 88.7892L501.375 88.7553C501.409 88.7553 501.477 88.6877 501.511 88.6538L501.646 88.62L501.883 88.5523L502.255 88.4508L502.357 88.417L502.661 88.2816C502.661 88.2816 502.763 88.1801 502.796 88.1124L503 88.0786L503.236 87.8417L503.642 87.571L503.845 87.5033L504.285 87.1988L504.353 87.165C505.131 86.6913 505.876 86.2175 506.451 85.6761L506.789 85.4054L507.094 85.0671L507.398 84.7625L507.771 84.4918L508.109 84.0181C508.177 83.8828 508.244 83.6459 508.278 83.5444C508.549 82.9015 508.549 82.8 508.583 82.6646V82.5969ZM506.383 83.7813L506.146 84.0181C506.146 84.0181 506.113 84.0858 506.113 84.1196L505.808 84.4242L505.47 84.7287L505.368 84.864C505.097 85.1009 504.827 85.3716 504.556 85.5746L504.387 85.71L503.439 86.3529H503.203L502.56 86.8604L501.883 87.1988C501.443 87.368 500.935 87.571 500.394 87.7402C499.311 88.1124 499.074 88.2139 498.025 88.1463H497.958L497.789 88.0447L497.586 87.8417V87.6387L497.619 87.5372L497.653 87.2665L497.721 87.0973C497.721 87.0973 497.721 87.0296 497.755 86.9958C497.856 86.7589 498.025 86.4882 498.195 86.2514L498.465 85.9468L498.77 85.5408C498.804 85.4731 499.007 85.2701 499.074 85.2024L499.514 84.864L499.751 84.661L500.123 84.4242L500.496 84.0858L500.935 83.7813L501.138 83.6121C501.375 83.4767 501.612 83.2737 501.849 83.1383L502.018 83.0368L502.424 82.7661L503.372 82.1909C504.455 81.6157 504.962 81.2435 505.334 81.0066L505.571 80.8374C505.605 80.8713 505.673 80.8713 505.673 80.8713L506.079 81.1081L506.485 81.2435L506.755 81.4126L506.992 81.5818L507.026 81.6157C507.026 81.6495 507.161 81.8864 507.195 81.954C507.195 82.0894 507.161 82.1571 507.161 82.2586L507.026 82.6308V82.8338C506.891 83.1045 506.755 83.3752 506.485 83.7136L506.383 83.7813Z" fill="url(#paint17_linear_0_191)"/>
<path d="M362.697 76.3719L361.878 76.8735L361.481 77.1712L360.693 77.6748C360.464 77.7988 360.23 78.0144 360.002 78.1384L358.095 79.4013L357.932 79.4833L357.601 79.739L356.288 80.5783L355.071 81.3776L354.381 81.8412L353.036 82.6786L352.676 82.8865L351.717 83.6097L351.06 84.0293L349.738 85.0063L349.479 85.1283L349.373 85.3059L348.716 85.7256L348.682 85.7695L348.22 86.1091C347.363 86.7005 346.501 87.3837 345.644 87.9751L345.382 88.143L345.122 88.265L344.157 89.0799L343.866 89.2L342.77 90.0988L341.474 91.1694L340.32 91.9726L339.589 92.5719L338.696 93.7595L338.305 94.4719C337.88 95.2282 337.737 95.4956 337.728 96.1396C337.726 97.1984 338.108 97.6365 338.554 98.0785L338.768 98.1839L339.522 98.2306L340.407 98.1935L342.02 97.6029L342.409 97.4428L343.899 96.7986L344.093 96.7186L345.606 96.2139C345.863 96.1378 346.157 95.9719 346.383 95.8938L347.271 95.8108C347.368 95.7707 347.565 95.6448 347.694 95.6068L348.741 95.4876L349.452 95.2094L349.992 95.1508L350.286 94.9849L350.926 94.8404C352.587 94.4831 354.286 94.036 355.948 93.6787L356.993 93.6054L358.264 93.454L358.364 93.3681L358.84 93.3056L359.666 93.2187L360.171 93.204L360.682 93.0976L362.261 93.0574L362.358 93.0174L364.954 92.8561L365.593 92.7116L365.75 92.7213L366.636 92.6842L368.306 92.6957L368.531 92.6176L369.197 92.5668L371.124 92.5022L371.31 92.5598L371.721 92.5392L371.909 92.5509L372.512 92.4962C372.606 92.502 372.703 92.462 372.766 92.4659C373.274 92.4054 373.525 92.421 373.777 92.4366C374.596 92.4413 375.484 92.3583 376.304 92.3631L376.901 92.4001C377.12 92.4138 377.343 92.3815 377.563 92.3952L377.843 92.4586C378.759 92.4233 379.807 92.3042 380.755 92.2709L382.394 92.2805L383.025 92.2736L383.688 92.2686L384.199 92.1622L384.864 92.1114L385.338 92.0948L387.191 92.2097C387.277 92.3532 387.377 92.2673 387.503 92.2751L387.879 92.2985C388.356 92.236 388.513 92.2457 388.702 92.2574C388.827 92.2652 389.142 92.2847 389.396 92.2544L391.092 92.3596L391.434 92.4269L392.154 92.5176L392.537 92.4492L392.677 92.2277L392.728 91.9086L392.688 91.5378L392.574 91.3465L392.271 91.1436L391.805 91.0227C391.554 91.0071 391.08 91.0237 390.829 91.0081L389.11 90.7634L388.767 90.6961L388.513 90.7264L388.293 90.7127L387.097 90.6845L386.306 90.7276L384.67 90.6721L383.727 90.6137L383.408 90.6859L382.497 90.6294L382.243 90.6597L381.957 90.688L380.981 90.6735L379.747 90.7351L379.65 90.7751L379.459 90.8093L378.987 90.78L375.39 90.8331C375.201 90.8214 375.01 90.8556 374.853 90.8459L374.382 90.8166L374.165 90.7571L373.939 90.8352L372.3 90.8256L371.886 90.892C371.192 90.895 370.43 90.9859 369.736 90.9889L369.425 90.9235L368.819 91.0241C368.694 91.0163 368.443 91.0007 368.314 91.0388L367.537 90.8525L366.592 90.8399L365.77 90.881L365.45 90.9532L364.882 90.964L364.559 91.0821L364.122 91.009L363.232 91.1379L362.946 91.1662L362.024 91.2931L361.832 91.3273L361.515 91.3537L360.562 91.4787L358.997 91.796L358.649 91.8204L358.363 91.8488L356.87 92.0324L356.71 92.0685L356.105 92.1691L355.822 92.1515L353.815 92.4874L352.647 92.5071L352.202 92.5715L351.819 92.6399L351.334 92.84L350.089 93.085L349.769 93.1573L348.872 93.3779L348.587 93.4062L348.107 93.5146L347.211 93.7352L346.985 93.8133L346.668 93.8397L345.8 94.1081L345.515 94.1364L344.612 94.4488L343.327 94.8295L342.848 94.9379L342.305 95.0423L341.414 95.1712C341.257 95.1615 341.072 95.1039 340.915 95.0942L341.026 94.8249C341.06 94.781 341.163 94.6492 341.2 94.5594L341.237 94.4696C341.577 94.0764 341.751 93.8109 341.885 93.6811C342.082 93.5552 342.285 93.3376 342.482 93.2117L342.679 93.0858L343.01 92.8301L343.513 92.3548L343.821 91.9596L344.352 91.5321L345.357 90.5816L345.694 90.2341L346.387 89.7247L347.15 89.1274L347.347 89.0015L347.746 88.658L348.842 87.7591L349.51 87.156L351.432 85.6638C352.953 84.5151 354.567 83.4181 356.08 82.407L356.539 82.1132L357.359 81.6116L357.559 81.4398L357.987 81.1441L358.94 80.5127L361.042 79.1697L362.775 78.1723L362.963 78.1839L363.714 77.7701L364.448 77.125C364.582 76.9952 364.619 76.9055 364.779 76.8693L364.976 76.7434L366.849 75.5244C366.88 75.5264 367.008 75.4883 367.106 75.4483L367.405 75.1907L368.933 74.4567L369.898 73.6418L371.282 72.6687L371.902 72.3389L372.567 71.7816C373.689 70.9764 374.937 70.1791 376.059 69.3739L376.513 69.1718L376.775 69.004L377.106 68.7483L377.655 68.5521L378.146 68.2603L378.346 68.0885L379.016 67.4395L379.636 67.1096L380.11 66.5865L380.452 66.1474L381.709 65.2124L382.439 64.6132C382.614 64.3478 382.742 64.3097 382.81 64.2219L382.945 64.0921L384.383 62.7541L385.063 61.9675C385.066 61.9216 385.1 61.8777 385.134 61.8338L385.577 61.3088L385.991 60.7359L386.744 59.7698L387.084 59.3765L387.689 58.7695L387.997 58.3742L388.22 57.8356L388.366 57.5223L388.431 56.4674L388.319 55.2174L388.231 54.6134L387.891 53.4874L387.665 53.059C387.634 53.057 387.545 52.9595 387.482 52.9556C386.805 52.6834 386.286 52.421 386.1 52.3634L385.326 52.1312L384.901 51.8746L384.038 51.5449L383.696 51.4776C383.601 51.4718 383.51 51.4201 383.416 51.4142L383.047 51.2532C382.399 51.0289 381.714 50.8943 380.991 50.8495L378.853 50.7628L378.693 50.799L377.428 50.8586L377.242 50.8011L376.957 50.8294L376.763 50.9094L376.637 50.9016L375.886 50.809L375.032 50.8481L374.741 50.9682L374.678 50.9643L374.139 51.0229L373.448 50.98L373.256 51.0142L373.036 51.0006L372.245 51.0436L371.577 51.1403L371.138 51.113L370.755 51.1813L370.504 51.1658L369.356 51.3708C369.039 51.3972 368.748 51.5172 368.431 51.5436L368.308 51.49L367.925 51.5583C367.354 51.615 366.746 51.7614 366.175 51.8181L365.387 51.8152L364.936 51.9714L364.111 52.0583L363.831 51.9949L362.84 52.2097L362.238 52.2644L361.564 52.4528L360.122 52.8238L359.933 52.8121L359.708 52.8902L359.197 52.9966L358.274 53.1235L358.306 53.1255L357.766 53.1841L357.575 53.2183L357.158 53.3305L355.825 53.9845L355.725 54.0704L355.382 54.5095L355.231 54.9145L355.174 55.3253C355.403 56.2143 355.945 56.6162 356.79 56.7147L357.75 56.498L357.915 56.3701L359.115 55.846L360.188 55.314L360.739 55.072L361.193 54.8699L361.875 54.544L362.801 54.3711L363.965 53.8909L364.031 53.8489L364.16 53.8109L364.442 53.8284L364.671 53.7045C364.925 53.6742 365.216 53.5541 365.502 53.5258L366.007 53.5111L366.167 53.475L366.361 53.3949L366.612 53.4105L367.951 53.1713L368.454 53.2025L370.27 52.9008C370.618 52.8763 371.029 52.8558 371.381 52.7855L372.994 52.7014L373.279 52.6731C373.565 52.6448 373.919 52.5286 374.205 52.5003L375.375 52.4348L375.435 52.4845L375.718 52.5021L378.65 52.4998L378.996 52.5212L380.903 52.7777L381.252 52.7533L381.66 52.7786L382.223 52.8595L382.725 52.8907L383.536 53.0331L383.97 53.1521L384.061 53.2038L384.655 53.2867C384.812 53.2964 384.901 53.394 385.058 53.4037L385.484 53.6603L385.975 53.8749C386.006 53.8769 386.063 53.9725 386.095 53.9745L386.403 54.0857L386.763 54.3842L386.971 54.5813C387.031 54.6311 387.203 54.918 387.283 55.1531L387.291 55.522L387.277 55.7513C387.263 55.9806 387.215 56.2539 387.197 56.529L386.924 57.3868L386.082 58.7618C385.773 59.1571 385.259 59.8158 384.888 60.2071L384.423 60.5926L383.926 60.9762L383.184 61.7589L382.39 62.3542L381.888 62.8295L381.457 63.171L381.02 63.6044L380.854 63.7322L380.321 64.2055L380.015 64.5549L379.781 64.7706C378.956 65.364 377.994 66.133 377.166 66.7722L375.624 67.7355L374.542 68.4051L374.222 68.4773L373.791 68.8189L373.232 69.1985L372.835 69.4962L372.281 69.7841L371.55 70.3834L371.453 70.4234L371.133 70.4956L370.699 70.8831L369.914 71.3408L369.478 71.7741L368.712 72.4173L367.234 73.3844L366.514 73.8002L366.083 74.1418L364.444 75.1451L364.013 75.4867L362.697 76.3719Z" fill="url(#paint18_linear_0_191)"/>
<defs>
<linearGradient id="paint0_linear_0_191" x1="89.0494" y1="139.306" x2="86.1577" y2="139.152" gradientUnits="userSpaceOnUse">
<stop stop-color="#FCF18D"/>
<stop offset="0.36" stop-color="#EFD473"/>
<stop offset="0.64" stop-color="#CEAD51"/>
<stop offset="1" stop-color="#9D7823"/>
</linearGradient>
<linearGradient id="paint1_linear_0_191" x1="89.0494" y1="149.999" x2="86.1577" y2="149.846" gradientUnits="userSpaceOnUse">
<stop stop-color="#FCF18D"/>
<stop offset="0.36" stop-color="#EFD473"/>
<stop offset="0.64" stop-color="#CEAD51"/>
<stop offset="1" stop-color="#9D7823"/>
</linearGradient>
<linearGradient id="paint2_linear_0_191" x1="178.282" y1="143.03" x2="-15.1895" y2="130.881" gradientUnits="userSpaceOnUse">
<stop stop-color="#FCF18D"/>
<stop offset="0.36" stop-color="#EFD473"/>
<stop offset="0.64" stop-color="#CEAD51"/>
<stop offset="1" stop-color="#9D7823"/>
</linearGradient>
<linearGradient id="paint3_linear_0_191" x1="519.783" y1="98.2306" x2="201.423" y2="7.8009" gradientUnits="userSpaceOnUse">
<stop stop-color="#FCF18D"/>
<stop offset="0.36" stop-color="#EFD473"/>
<stop offset="0.64" stop-color="#CEAD51"/>
<stop offset="1" stop-color="#9D7823"/>
</linearGradient>
<linearGradient id="paint4_linear_0_191" x1="519.783" y1="98.2306" x2="201.423" y2="7.8009" gradientUnits="userSpaceOnUse">
<stop stop-color="#FCF18D"/>
<stop offset="0.36" stop-color="#EFD473"/>
<stop offset="0.64" stop-color="#CEAD51"/>
<stop offset="1" stop-color="#9D7823"/>
</linearGradient>
<linearGradient id="paint5_linear_0_191" x1="519.783" y1="98.2306" x2="201.423" y2="7.8009" gradientUnits="userSpaceOnUse">
<stop stop-color="#FCF18D"/>
<stop offset="0.36" stop-color="#EFD473"/>
<stop offset="0.64" stop-color="#CEAD51"/>
<stop offset="1" stop-color="#9D7823"/>
</linearGradient>
<linearGradient id="paint6_linear_0_191" x1="519.783" y1="98.2306" x2="201.423" y2="7.8009" gradientUnits="userSpaceOnUse">
<stop stop-color="#FCF18D"/>
<stop offset="0.36" stop-color="#EFD473"/>
<stop offset="0.64" stop-color="#CEAD51"/>
<stop offset="1" stop-color="#9D7823"/>
</linearGradient>
<linearGradient id="paint7_linear_0_191" x1="519.783" y1="98.2306" x2="201.423" y2="7.8009" gradientUnits="userSpaceOnUse">
<stop stop-color="#FCF18D"/>
<stop offset="0.36" stop-color="#EFD473"/>
<stop offset="0.64" stop-color="#CEAD51"/>
<stop offset="1" stop-color="#9D7823"/>
</linearGradient>
<linearGradient id="paint8_linear_0_191" x1="519.783" y1="98.2306" x2="201.423" y2="7.8009" gradientUnits="userSpaceOnUse">
<stop stop-color="#FCF18D"/>
<stop offset="0.36" stop-color="#EFD473"/>
<stop offset="0.64" stop-color="#CEAD51"/>
<stop offset="1" stop-color="#9D7823"/>
</linearGradient>
<linearGradient id="paint9_linear_0_191" x1="519.783" y1="98.2306" x2="201.423" y2="7.8009" gradientUnits="userSpaceOnUse">
<stop stop-color="#FCF18D"/>
<stop offset="0.36" stop-color="#EFD473"/>
<stop offset="0.64" stop-color="#CEAD51"/>
<stop offset="1" stop-color="#9D7823"/>
</linearGradient>
<linearGradient id="paint10_linear_0_191" x1="519.783" y1="98.2306" x2="201.423" y2="7.8009" gradientUnits="userSpaceOnUse">
<stop stop-color="#FCF18D"/>
<stop offset="0.36" stop-color="#EFD473"/>
<stop offset="0.64" stop-color="#CEAD51"/>
<stop offset="1" stop-color="#9D7823"/>
</linearGradient>
<linearGradient id="paint11_linear_0_191" x1="519.783" y1="98.2306" x2="201.423" y2="7.8009" gradientUnits="userSpaceOnUse">
<stop stop-color="#FCF18D"/>
<stop offset="0.36" stop-color="#EFD473"/>
<stop offset="0.64" stop-color="#CEAD51"/>
<stop offset="1" stop-color="#9D7823"/>
</linearGradient>
<linearGradient id="paint12_linear_0_191" x1="519.783" y1="98.2306" x2="201.423" y2="7.8009" gradientUnits="userSpaceOnUse">
<stop stop-color="#FCF18D"/>
<stop offset="0.36" stop-color="#EFD473"/>
<stop offset="0.64" stop-color="#CEAD51"/>
<stop offset="1" stop-color="#9D7823"/>
</linearGradient>
<linearGradient id="paint13_linear_0_191" x1="519.783" y1="98.2306" x2="201.423" y2="7.8009" gradientUnits="userSpaceOnUse">
<stop stop-color="#FCF18D"/>
<stop offset="0.36" stop-color="#EFD473"/>
<stop offset="0.64" stop-color="#CEAD51"/>
<stop offset="1" stop-color="#9D7823"/>
</linearGradient>
<linearGradient id="paint14_linear_0_191" x1="519.783" y1="98.2306" x2="201.423" y2="7.8009" gradientUnits="userSpaceOnUse">
<stop stop-color="#FCF18D"/>
<stop offset="0.36" stop-color="#EFD473"/>
<stop offset="0.64" stop-color="#CEAD51"/>
<stop offset="1" stop-color="#9D7823"/>
</linearGradient>
<linearGradient id="paint15_linear_0_191" x1="519.783" y1="98.2306" x2="201.423" y2="7.8009" gradientUnits="userSpaceOnUse">
<stop stop-color="#FCF18D"/>
<stop offset="0.36" stop-color="#EFD473"/>
<stop offset="0.64" stop-color="#CEAD51"/>
<stop offset="1" stop-color="#9D7823"/>
</linearGradient>
<linearGradient id="paint16_linear_0_191" x1="519.783" y1="98.2306" x2="201.423" y2="7.8009" gradientUnits="userSpaceOnUse">
<stop stop-color="#FCF18D"/>
<stop offset="0.36" stop-color="#EFD473"/>
<stop offset="0.64" stop-color="#CEAD51"/>
<stop offset="1" stop-color="#9D7823"/>
</linearGradient>
<linearGradient id="paint17_linear_0_191" x1="519.783" y1="98.2306" x2="201.423" y2="7.8009" gradientUnits="userSpaceOnUse">
<stop stop-color="#FCF18D"/>
<stop offset="0.36" stop-color="#EFD473"/>
<stop offset="0.64" stop-color="#CEAD51"/>
<stop offset="1" stop-color="#9D7823"/>
</linearGradient>
<linearGradient id="paint18_linear_0_191" x1="519.783" y1="98.2306" x2="201.423" y2="7.8009" gradientUnits="userSpaceOnUse">
<stop stop-color="#FCF18D"/>
<stop offset="0.36" stop-color="#EFD473"/>
<stop offset="0.64" stop-color="#CEAD51"/>
<stop offset="1" stop-color="#9D7823"/>
</linearGradient>
</defs>
</svg>
